<svg width="290" height="70" viewBox="0 0 290 70" fill="none" xmlns="http://www.w3.org/2000/svg">
<circle cx="35" cy="35" r="35" fill="#2E3440"/>
<path d="M101.9 16.709L96.936 29H94.8705L89.9065 16.709H91.7425C91.9408 16.709 92.1023 16.7572 92.227 16.8535C92.3517 16.9498 92.4452 17.0745 92.5075 17.2275L95.406 24.7245C95.5023 24.9682 95.593 25.2373 95.678 25.532C95.7687 25.821 95.8537 26.1242 95.933 26.4415C96.001 26.1242 96.0747 25.821 96.154 25.532C96.2333 25.2373 96.3212 24.9682 96.4175 24.7245L99.299 17.2275C99.3443 17.0972 99.4322 16.9782 99.5625 16.8705C99.6985 16.7628 99.8628 16.709 100.056 16.709H101.9ZM105.017 20.279V29H102.909V20.279H105.017ZM105.306 17.7375C105.306 17.9188 105.269 18.0888 105.195 18.2475C105.122 18.4062 105.022 18.545 104.898 18.664C104.779 18.783 104.637 18.8793 104.473 18.953C104.308 19.021 104.133 19.055 103.946 19.055C103.764 19.055 103.592 19.021 103.427 18.953C103.269 18.8793 103.13 18.783 103.011 18.664C102.892 18.545 102.795 18.4062 102.722 18.2475C102.654 18.0888 102.62 17.9188 102.62 17.7375C102.62 17.5505 102.654 17.3748 102.722 17.2105C102.795 17.0462 102.892 16.9045 103.011 16.7855C103.13 16.6665 103.269 16.573 103.427 16.505C103.592 16.4313 103.764 16.3945 103.946 16.3945C104.133 16.3945 104.308 16.4313 104.473 16.505C104.637 16.573 104.779 16.6665 104.898 16.7855C105.022 16.9045 105.122 17.0462 105.195 17.2105C105.269 17.3748 105.306 17.5505 105.306 17.7375ZM112.776 23.6365C112.776 23.3645 112.736 23.1095 112.657 22.8715C112.583 22.6278 112.47 22.4153 112.317 22.234C112.164 22.0527 111.968 21.911 111.73 21.809C111.498 21.7013 111.226 21.6475 110.914 21.6475C110.308 21.6475 109.829 21.8203 109.478 22.166C109.132 22.5117 108.911 23.0018 108.815 23.6365H112.776ZM108.772 24.903C108.806 25.3507 108.885 25.7388 109.01 26.0675C109.135 26.3905 109.299 26.6597 109.503 26.875C109.707 27.0847 109.948 27.2433 110.226 27.351C110.509 27.453 110.821 27.504 111.161 27.504C111.501 27.504 111.792 27.4643 112.036 27.385C112.285 27.3057 112.501 27.2178 112.682 27.1215C112.869 27.0252 113.031 26.9373 113.167 26.858C113.308 26.7787 113.444 26.739 113.575 26.739C113.75 26.739 113.881 26.8042 113.966 26.9345L114.569 27.6995C114.337 27.9715 114.076 28.201 113.787 28.388C113.498 28.5693 113.195 28.7167 112.878 28.83C112.566 28.9377 112.246 29.0142 111.917 29.0595C111.594 29.1048 111.28 29.1275 110.974 29.1275C110.367 29.1275 109.803 29.0283 109.282 28.83C108.761 28.626 108.307 28.3285 107.922 27.9375C107.537 27.5408 107.234 27.0535 107.013 26.4755C106.792 25.8918 106.681 25.2175 106.681 24.4525C106.681 23.8575 106.777 23.2993 106.97 22.778C107.163 22.251 107.438 21.7948 107.795 21.4095C108.157 21.0185 108.596 20.7097 109.112 20.483C109.633 20.2563 110.22 20.143 110.872 20.143C111.421 20.143 111.928 20.2308 112.393 20.4065C112.858 20.5822 113.257 20.84 113.592 21.18C113.926 21.5143 114.187 21.928 114.374 22.421C114.566 22.9083 114.663 23.4665 114.663 24.0955C114.663 24.4128 114.629 24.6282 114.561 24.7415C114.493 24.8492 114.362 24.903 114.17 24.903H108.772ZM128.574 20.279L125.803 29H124.12C123.928 29 123.795 28.8753 123.721 28.626L122.157 23.5855C122.106 23.4155 122.058 23.2483 122.012 23.084C121.973 22.914 121.939 22.744 121.91 22.574C121.876 22.744 121.837 22.9168 121.791 23.0925C121.752 23.2625 121.706 23.4325 121.655 23.6025L120.066 28.626C119.998 28.8753 119.848 29 119.615 29H118L115.238 20.279H116.912C117.065 20.279 117.196 20.3158 117.303 20.3895C117.411 20.4632 117.482 20.5567 117.516 20.67L118.765 25.328C118.828 25.583 118.882 25.8323 118.927 26.076C118.978 26.3197 119.02 26.5633 119.054 26.807C119.117 26.5633 119.182 26.3197 119.25 26.076C119.324 25.8323 119.4 25.583 119.479 25.328L120.924 20.653C120.958 20.5397 121.024 20.4462 121.12 20.3725C121.222 20.2988 121.344 20.262 121.485 20.262H122.412C122.559 20.262 122.684 20.2988 122.786 20.3725C122.894 20.4462 122.964 20.5397 122.998 20.653L124.401 25.328C124.475 25.583 124.543 25.8352 124.605 26.0845C124.673 26.3282 124.738 26.5718 124.8 26.8155C124.874 26.3338 124.979 25.838 125.115 25.328L126.398 20.67C126.438 20.5567 126.509 20.4632 126.611 20.3895C126.713 20.3158 126.835 20.279 126.976 20.279H128.574Z" fill="black"/>
<path d="M102.569 43.0295C102.461 43.2185 102.344 43.358 102.218 43.448C102.101 43.529 101.952 43.5695 101.772 43.5695C101.583 43.5695 101.376 43.502 101.151 43.367C100.935 43.223 100.674 43.0655 100.368 42.8945C100.062 42.7235 99.702 42.5705 99.288 42.4355C98.883 42.2915 98.4015 42.2195 97.8435 42.2195C97.3395 42.2195 96.8985 42.2825 96.5205 42.4085C96.1425 42.5255 95.823 42.692 95.562 42.908C95.31 43.124 95.121 43.385 94.995 43.691C94.869 43.988 94.806 44.3165 94.806 44.6765C94.806 45.1355 94.932 45.518 95.184 45.824C95.445 46.13 95.787 46.391 96.21 46.607C96.633 46.823 97.1145 47.0165 97.6545 47.1875C98.1945 47.3585 98.748 47.543 99.315 47.741C99.882 47.93 100.436 48.155 100.976 48.416C101.516 48.668 101.997 48.992 102.42 49.388C102.843 49.775 103.181 50.252 103.433 50.819C103.694 51.386 103.824 52.0745 103.824 52.8845C103.824 53.7665 103.671 54.5945 103.365 55.3685C103.068 56.1335 102.627 56.804 102.042 57.38C101.466 57.947 100.76 58.397 99.9225 58.73C99.0855 59.054 98.127 59.216 97.047 59.216C96.426 59.216 95.814 59.153 95.211 59.027C94.608 58.91 94.0275 58.739 93.4695 58.514C92.9205 58.289 92.403 58.019 91.917 57.704C91.431 57.389 90.999 57.038 90.621 56.651L91.6875 54.9095C91.7775 54.7835 91.8945 54.68 92.0385 54.599C92.1825 54.509 92.3355 54.464 92.4975 54.464C92.7225 54.464 92.9655 54.5585 93.2265 54.7475C93.4875 54.9275 93.798 55.13 94.158 55.355C94.518 55.58 94.9365 55.787 95.4135 55.976C95.8995 56.156 96.48 56.246 97.155 56.246C98.19 56.246 98.991 56.003 99.558 55.517C100.125 55.022 100.409 54.3155 100.409 53.3975C100.409 52.8845 100.278 52.466 100.017 52.142C99.765 51.818 99.4275 51.548 99.0045 51.332C98.5815 51.107 98.1 50.918 97.56 50.765C97.02 50.612 96.471 50.4455 95.913 50.2655C95.355 50.0855 94.806 49.8695 94.266 49.6175C93.726 49.3655 93.2445 49.037 92.8215 48.632C92.3985 48.227 92.0565 47.723 91.7955 47.12C91.5435 46.508 91.4175 45.7565 91.4175 44.8655C91.4175 44.1545 91.557 43.4615 91.836 42.7865C92.124 42.1115 92.538 41.513 93.078 40.991C93.618 40.469 94.284 40.0505 95.076 39.7355C95.868 39.4205 96.777 39.263 97.803 39.263C98.955 39.263 100.017 39.443 100.989 39.803C101.961 40.163 102.789 40.667 103.473 41.315L102.569 43.0295ZM113.598 53.087C112.635 53.132 111.825 53.2175 111.168 53.3435C110.511 53.4605 109.984 53.6135 109.588 53.8025C109.192 53.9915 108.909 54.212 108.738 54.464C108.567 54.716 108.481 54.9905 108.481 55.2875C108.481 55.8725 108.652 56.291 108.994 56.543C109.345 56.795 109.8 56.921 110.358 56.921C111.042 56.921 111.631 56.7995 112.126 56.5565C112.63 56.3045 113.121 55.9265 113.598 55.4225V53.087ZM105.957 47.0795C107.55 45.6215 109.467 44.8925 111.708 44.8925C112.518 44.8925 113.242 45.0275 113.881 45.2975C114.52 45.5585 115.06 45.9275 115.501 46.4045C115.942 46.8725 116.275 47.435 116.5 48.092C116.734 48.749 116.851 49.469 116.851 50.252V59H115.339C115.024 59 114.781 58.955 114.61 58.865C114.439 58.766 114.304 58.5725 114.205 58.2845L113.908 57.2855C113.557 57.6005 113.215 57.8795 112.882 58.1225C112.549 58.3565 112.203 58.5545 111.843 58.7165C111.483 58.8785 111.096 59 110.682 59.081C110.277 59.171 109.827 59.216 109.332 59.216C108.747 59.216 108.207 59.1395 107.712 58.9865C107.217 58.8245 106.789 58.586 106.429 58.271C106.069 57.956 105.79 57.5645 105.592 57.0965C105.394 56.6285 105.295 56.084 105.295 55.463C105.295 55.112 105.354 54.7655 105.471 54.4235C105.588 54.0725 105.777 53.7395 106.038 53.4245C106.308 53.1095 106.654 52.8125 107.077 52.5335C107.5 52.2545 108.018 52.0115 108.63 51.8045C109.251 51.5975 109.971 51.431 110.79 51.305C111.609 51.17 112.545 51.089 113.598 51.062V50.252C113.598 49.325 113.4 48.641 113.004 48.2C112.608 47.75 112.036 47.525 111.289 47.525C110.749 47.525 110.299 47.588 109.939 47.714C109.588 47.84 109.278 47.984 109.008 48.146C108.738 48.299 108.49 48.4385 108.265 48.5645C108.049 48.6905 107.806 48.7535 107.536 48.7535C107.302 48.7535 107.104 48.695 106.942 48.578C106.78 48.452 106.65 48.308 106.551 48.146L105.957 47.0795ZM132.163 45.149L126.668 59H123.644L118.15 45.149H120.904C121.156 45.149 121.363 45.2075 121.525 45.3245C121.696 45.4415 121.808 45.59 121.862 45.77L124.535 53.168C124.679 53.6 124.805 54.023 124.913 54.437C125.021 54.851 125.116 55.265 125.197 55.679C125.287 55.265 125.386 54.851 125.494 54.437C125.602 54.023 125.732 53.6 125.885 53.168L128.612 45.77C128.675 45.59 128.788 45.4415 128.95 45.3245C129.112 45.2075 129.305 45.149 129.53 45.149H132.163ZM142.442 50.4815C142.442 50.0495 142.379 49.6445 142.253 49.2665C142.136 48.8795 141.956 48.542 141.713 48.254C141.47 47.966 141.159 47.741 140.781 47.579C140.412 47.408 139.98 47.3225 139.485 47.3225C138.522 47.3225 137.762 47.597 137.204 48.146C136.655 48.695 136.304 49.4735 136.151 50.4815H142.442ZM136.083 52.493C136.137 53.204 136.263 53.8205 136.461 54.3425C136.659 54.8555 136.92 55.283 137.244 55.625C137.568 55.958 137.951 56.21 138.392 56.381C138.842 56.543 139.337 56.624 139.877 56.624C140.417 56.624 140.88 56.561 141.267 56.435C141.663 56.309 142.005 56.1695 142.293 56.0165C142.59 55.8635 142.847 55.724 143.063 55.598C143.288 55.472 143.504 55.409 143.711 55.409C143.99 55.409 144.197 55.5125 144.332 55.7195L145.29 56.9345C144.921 57.3665 144.507 57.731 144.048 58.028C143.589 58.316 143.108 58.55 142.604 58.73C142.109 58.901 141.6 59.0225 141.078 59.0945C140.565 59.1665 140.066 59.2025 139.58 59.2025C138.617 59.2025 137.721 59.045 136.893 58.73C136.065 58.406 135.345 57.9335 134.733 57.3125C134.121 56.6825 133.64 55.9085 133.289 54.9905C132.938 54.0635 132.762 52.9925 132.762 51.7775C132.762 50.8325 132.915 49.946 133.221 49.118C133.527 48.281 133.964 47.5565 134.531 46.9445C135.107 46.3235 135.804 45.833 136.623 45.473C137.451 45.113 138.383 44.933 139.418 44.933C140.291 44.933 141.096 45.0725 141.834 45.3515C142.572 45.6305 143.207 46.04 143.738 46.58C144.269 47.111 144.683 47.768 144.98 48.551C145.286 49.325 145.439 50.2115 145.439 51.2105C145.439 51.7145 145.385 52.0565 145.277 52.2365C145.169 52.4075 144.962 52.493 144.656 52.493H136.083ZM156.635 48.686C156.257 48.227 155.843 47.903 155.393 47.714C154.952 47.525 154.475 47.4305 153.962 47.4305C153.458 47.4305 153.003 47.525 152.598 47.714C152.193 47.903 151.847 48.191 151.559 48.578C151.271 48.956 151.05 49.442 150.897 50.036C150.744 50.621 150.668 51.314 150.668 52.115C150.668 52.925 150.731 53.6135 150.857 54.1805C150.992 54.7385 151.181 55.1975 151.424 55.5575C151.667 55.9085 151.964 56.165 152.315 56.327C152.666 56.48 153.057 56.5565 153.489 56.5565C154.182 56.5565 154.772 56.4125 155.258 56.1245C155.744 55.8365 156.203 55.427 156.635 54.896V48.686ZM159.969 38.939V59H157.931C157.49 59 157.211 58.7975 157.094 58.3925L156.81 57.056C156.252 57.695 155.609 58.2125 154.88 58.6085C154.16 59.0045 153.318 59.2025 152.355 59.2025C151.599 59.2025 150.906 59.045 150.276 58.73C149.646 58.415 149.102 57.9605 148.643 57.3665C148.193 56.7635 147.842 56.021 147.59 55.139C147.347 54.257 147.225 53.249 147.225 52.115C147.225 51.089 147.365 50.135 147.644 49.253C147.923 48.371 148.323 47.606 148.845 46.958C149.367 46.31 149.993 45.806 150.722 45.446C151.451 45.077 152.27 44.8925 153.179 44.8925C153.953 44.8925 154.614 45.014 155.163 45.257C155.712 45.5 156.203 45.8285 156.635 46.2425V38.939H159.969ZM173.997 59H170.352V39.479H173.997V59ZM191.445 59H188.11V47.6465H181.684V55.1525C181.684 55.5845 181.788 55.922 181.995 56.165C182.211 56.408 182.503 56.5295 182.872 56.5295C183.079 56.5295 183.25 56.507 183.385 56.462C183.529 56.408 183.651 56.354 183.75 56.3C183.858 56.246 183.952 56.1965 184.033 56.1515C184.114 56.0975 184.195 56.0705 184.276 56.0705C184.375 56.0705 184.456 56.0975 184.519 56.1515C184.582 56.1965 184.65 56.2685 184.722 56.3675L185.721 57.9875C185.235 58.3925 184.677 58.6985 184.047 58.9055C183.417 59.1125 182.764 59.216 182.089 59.216C180.883 59.216 179.956 58.8785 179.308 58.2035C178.669 57.5195 178.35 56.579 178.35 55.382V47.6465H176.932C176.752 47.6465 176.599 47.588 176.473 47.471C176.347 47.354 176.284 47.1785 176.284 46.9445V45.6215L178.512 45.2435L179.214 41.477C179.259 41.297 179.344 41.1575 179.47 41.0585C179.596 40.9595 179.758 40.91 179.956 40.91H181.684V45.2705H191.445V59ZM192.025 41.0585C192.025 41.3465 191.967 41.621 191.85 41.882C191.733 42.134 191.575 42.3545 191.377 42.5435C191.188 42.7325 190.959 42.8855 190.689 43.0025C190.428 43.1105 190.149 43.1645 189.852 43.1645C189.564 43.1645 189.294 43.1105 189.042 43.0025C188.79 42.8855 188.569 42.7325 188.38 42.5435C188.191 42.3545 188.038 42.134 187.921 41.882C187.813 41.621 187.759 41.3465 187.759 41.0585C187.759 40.7615 187.813 40.487 187.921 40.235C188.038 39.974 188.191 39.749 188.38 39.56C188.569 39.362 188.79 39.209 189.042 39.101C189.294 38.984 189.564 38.9255 189.852 38.9255C190.149 38.9255 190.428 38.984 190.689 39.101C190.959 39.209 191.188 39.362 191.377 39.56C191.575 39.749 191.733 39.974 191.85 40.235C191.967 40.487 192.025 40.7615 192.025 41.0585ZM197.967 46.85C198.246 46.571 198.538 46.3145 198.844 46.0805C199.159 45.8375 199.488 45.635 199.83 45.473C200.181 45.302 200.554 45.1715 200.95 45.0815C201.346 44.9825 201.778 44.933 202.246 44.933C203.002 44.933 203.673 45.0635 204.258 45.3245C204.843 45.5765 205.329 45.9365 205.716 46.4045C206.112 46.8635 206.409 47.417 206.607 48.065C206.814 48.704 206.917 49.4105 206.917 50.1845V59H203.583V50.1845C203.583 49.3385 203.389 48.686 203.002 48.227C202.615 47.759 202.026 47.525 201.234 47.525C200.658 47.525 200.118 47.6555 199.614 47.9165C199.11 48.1775 198.633 48.533 198.183 48.983V59H194.848V45.149H196.887C197.319 45.149 197.602 45.3515 197.737 45.7565L197.967 46.85ZM219.012 50.4815C219.012 50.0495 218.949 49.6445 218.823 49.2665C218.706 48.8795 218.526 48.542 218.283 48.254C218.04 47.966 217.729 47.741 217.351 47.579C216.982 47.408 216.55 47.3225 216.055 47.3225C215.092 47.3225 214.332 47.597 213.774 48.146C213.225 48.695 212.874 49.4735 212.721 50.4815H219.012ZM212.653 52.493C212.707 53.204 212.833 53.8205 213.031 54.3425C213.229 54.8555 213.49 55.283 213.814 55.625C214.138 55.958 214.521 56.21 214.962 56.381C215.412 56.543 215.907 56.624 216.447 56.624C216.987 56.624 217.45 56.561 217.837 56.435C218.233 56.309 218.575 56.1695 218.863 56.0165C219.16 55.8635 219.417 55.724 219.633 55.598C219.858 55.472 220.074 55.409 220.281 55.409C220.56 55.409 220.767 55.5125 220.902 55.7195L221.86 56.9345C221.491 57.3665 221.077 57.731 220.618 58.028C220.159 58.316 219.678 58.55 219.174 58.73C218.679 58.901 218.17 59.0225 217.648 59.0945C217.135 59.1665 216.636 59.2025 216.15 59.2025C215.187 59.2025 214.291 59.045 213.463 58.73C212.635 58.406 211.915 57.9335 211.303 57.3125C210.691 56.6825 210.21 55.9085 209.859 54.9905C209.508 54.0635 209.332 52.9925 209.332 51.7775C209.332 50.8325 209.485 49.946 209.791 49.118C210.097 48.281 210.534 47.5565 211.101 46.9445C211.677 46.3235 212.374 45.833 213.193 45.473C214.021 45.113 214.953 44.933 215.988 44.933C216.861 44.933 217.666 45.0725 218.404 45.3515C219.142 45.6305 219.777 46.04 220.308 46.58C220.839 47.111 221.253 47.768 221.55 48.551C221.856 49.325 222.009 50.2115 222.009 51.2105C222.009 51.7145 221.955 52.0565 221.847 52.2365C221.739 52.4075 221.532 52.493 221.226 52.493H212.653ZM227.657 47.552C228.089 46.724 228.602 46.076 229.196 45.608C229.79 45.131 230.492 44.8925 231.302 44.8925C231.941 44.8925 232.454 45.032 232.841 45.311L232.625 47.8085C232.58 47.9705 232.512 48.0875 232.422 48.1595C232.341 48.2225 232.229 48.254 232.085 48.254C231.95 48.254 231.747 48.2315 231.477 48.1865C231.216 48.1415 230.96 48.119 230.708 48.119C230.339 48.119 230.01 48.173 229.722 48.281C229.434 48.389 229.173 48.5465 228.939 48.7535C228.714 48.9515 228.512 49.1945 228.332 49.4825C228.161 49.7705 227.999 50.099 227.846 50.468V59H224.511V45.149H226.469C226.811 45.149 227.049 45.212 227.184 45.338C227.319 45.455 227.409 45.671 227.454 45.986L227.657 47.552ZM241.716 53.087C240.753 53.132 239.943 53.2175 239.286 53.3435C238.629 53.4605 238.102 53.6135 237.706 53.8025C237.31 53.9915 237.027 54.212 236.856 54.464C236.685 54.716 236.599 54.9905 236.599 55.2875C236.599 55.8725 236.77 56.291 237.112 56.543C237.463 56.795 237.918 56.921 238.476 56.921C239.16 56.921 239.749 56.7995 240.244 56.5565C240.748 56.3045 241.239 55.9265 241.716 55.4225V53.087ZM234.075 47.0795C235.668 45.6215 237.585 44.8925 239.826 44.8925C240.636 44.8925 241.36 45.0275 241.999 45.2975C242.638 45.5585 243.178 45.9275 243.619 46.4045C244.06 46.8725 244.393 47.435 244.618 48.092C244.852 48.749 244.969 49.469 244.969 50.252V59H243.457C243.142 59 242.899 58.955 242.728 58.865C242.557 58.766 242.422 58.5725 242.323 58.2845L242.026 57.2855C241.675 57.6005 241.333 57.8795 241 58.1225C240.667 58.3565 240.321 58.5545 239.961 58.7165C239.601 58.8785 239.214 59 238.8 59.081C238.395 59.171 237.945 59.216 237.45 59.216C236.865 59.216 236.325 59.1395 235.83 58.9865C235.335 58.8245 234.907 58.586 234.547 58.271C234.187 57.956 233.908 57.5645 233.71 57.0965C233.512 56.6285 233.413 56.084 233.413 55.463C233.413 55.112 233.472 54.7655 233.589 54.4235C233.706 54.0725 233.895 53.7395 234.156 53.4245C234.426 53.1095 234.772 52.8125 235.195 52.5335C235.618 52.2545 236.136 52.0115 236.748 51.8045C237.369 51.5975 238.089 51.431 238.908 51.305C239.727 51.17 240.663 51.089 241.716 51.062V50.252C241.716 49.325 241.518 48.641 241.122 48.2C240.726 47.75 240.154 47.525 239.407 47.525C238.867 47.525 238.417 47.588 238.057 47.714C237.706 47.84 237.396 47.984 237.126 48.146C236.856 48.299 236.608 48.4385 236.383 48.5645C236.167 48.6905 235.924 48.7535 235.654 48.7535C235.42 48.7535 235.222 48.695 235.06 48.578C234.898 48.452 234.768 48.308 234.669 48.146L234.075 47.0795ZM251.255 47.552C251.687 46.724 252.2 46.076 252.794 45.608C253.388 45.131 254.09 44.8925 254.9 44.8925C255.539 44.8925 256.052 45.032 256.439 45.311L256.223 47.8085C256.178 47.9705 256.111 48.0875 256.021 48.1595C255.94 48.2225 255.827 48.254 255.683 48.254C255.548 48.254 255.346 48.2315 255.076 48.1865C254.815 48.1415 254.558 48.119 254.306 48.119C253.937 48.119 253.609 48.173 253.321 48.281C253.033 48.389 252.772 48.5465 252.538 48.7535C252.313 48.9515 252.11 49.1945 251.93 49.4825C251.759 49.7705 251.597 50.099 251.444 50.468V59H248.11V45.149H250.067C250.409 45.149 250.648 45.212 250.783 45.338C250.918 45.455 251.008 45.671 251.053 45.986L251.255 47.552ZM261.638 45.149V59H258.29V45.149H261.638ZM262.097 41.1125C262.097 41.4005 262.039 41.6705 261.922 41.9225C261.805 42.1745 261.647 42.395 261.449 42.584C261.26 42.773 261.035 42.926 260.774 43.043C260.513 43.151 260.234 43.205 259.937 43.205C259.649 43.205 259.375 43.151 259.114 43.043C258.862 42.926 258.641 42.773 258.452 42.584C258.263 42.395 258.11 42.1745 257.993 41.9225C257.885 41.6705 257.831 41.4005 257.831 41.1125C257.831 40.8155 257.885 40.5365 257.993 40.2755C258.11 40.0145 258.263 39.7895 258.452 39.6005C258.641 39.4115 258.862 39.263 259.114 39.155C259.375 39.038 259.649 38.9795 259.937 38.9795C260.234 38.9795 260.513 39.038 260.774 39.155C261.035 39.263 261.26 39.4115 261.449 39.6005C261.647 39.7895 261.805 40.0145 261.922 40.2755C262.039 40.5365 262.097 40.8155 262.097 41.1125ZM273.961 50.4815C273.961 50.0495 273.898 49.6445 273.772 49.2665C273.655 48.8795 273.475 48.542 273.232 48.254C272.989 47.966 272.679 47.741 272.301 47.579C271.932 47.408 271.5 47.3225 271.005 47.3225C270.042 47.3225 269.281 47.597 268.723 48.146C268.174 48.695 267.823 49.4735 267.67 50.4815H273.961ZM267.603 52.493C267.657 53.204 267.783 53.8205 267.981 54.3425C268.179 54.8555 268.44 55.283 268.764 55.625C269.088 55.958 269.47 56.21 269.911 56.381C270.361 56.543 270.856 56.624 271.396 56.624C271.936 56.624 272.4 56.561 272.787 56.435C273.183 56.309 273.525 56.1695 273.813 56.0165C274.11 55.8635 274.366 55.724 274.582 55.598C274.807 55.472 275.023 55.409 275.23 55.409C275.509 55.409 275.716 55.5125 275.851 55.7195L276.81 56.9345C276.441 57.3665 276.027 57.731 275.568 58.028C275.109 58.316 274.627 58.55 274.123 58.73C273.628 58.901 273.12 59.0225 272.598 59.0945C272.085 59.1665 271.585 59.2025 271.099 59.2025C270.136 59.2025 269.241 59.045 268.413 58.73C267.585 58.406 266.865 57.9335 266.253 57.3125C265.641 56.6825 265.159 55.9085 264.808 54.9905C264.457 54.0635 264.282 52.9925 264.282 51.7775C264.282 50.8325 264.435 49.946 264.741 49.118C265.047 48.281 265.483 47.5565 266.05 46.9445C266.626 46.3235 267.324 45.833 268.143 45.473C268.971 45.113 269.902 44.933 270.937 44.933C271.81 44.933 272.616 45.0725 273.354 45.3515C274.092 45.6305 274.726 46.04 275.257 46.58C275.788 47.111 276.202 47.768 276.499 48.551C276.805 49.325 276.958 50.2115 276.958 51.2105C276.958 51.7145 276.904 52.0565 276.796 52.2365C276.688 52.4075 276.481 52.493 276.175 52.493H267.603ZM287.911 47.849C287.821 47.993 287.727 48.0965 287.628 48.1595C287.529 48.2135 287.403 48.2405 287.25 48.2405C287.088 48.2405 286.912 48.1955 286.723 48.1055C286.543 48.0155 286.332 47.9165 286.089 47.8085C285.846 47.6915 285.567 47.588 285.252 47.498C284.946 47.408 284.581 47.363 284.158 47.363C283.501 47.363 282.984 47.5025 282.606 47.7815C282.237 48.0605 282.052 48.425 282.052 48.875C282.052 49.172 282.147 49.424 282.336 49.631C282.534 49.829 282.79 50.0045 283.105 50.1575C283.429 50.3105 283.794 50.45 284.199 50.576C284.604 50.693 285.013 50.8235 285.427 50.9675C285.85 51.1115 286.264 51.278 286.669 51.467C287.074 51.647 287.434 51.881 287.749 52.169C288.073 52.448 288.33 52.7855 288.519 53.1815C288.717 53.5775 288.816 54.0545 288.816 54.6125C288.816 55.2785 288.694 55.895 288.451 56.462C288.217 57.02 287.866 57.506 287.398 57.92C286.93 58.325 286.35 58.6445 285.657 58.8785C284.973 59.1035 284.181 59.216 283.281 59.216C282.804 59.216 282.336 59.171 281.877 59.081C281.427 59 280.99 58.883 280.567 58.73C280.153 58.577 279.766 58.397 279.406 58.19C279.055 57.983 278.745 57.758 278.475 57.515L279.244 56.246C279.343 56.093 279.46 55.976 279.595 55.895C279.73 55.814 279.901 55.7735 280.108 55.7735C280.315 55.7735 280.509 55.832 280.689 55.949C280.878 56.066 281.094 56.192 281.337 56.327C281.58 56.462 281.863 56.588 282.187 56.705C282.52 56.822 282.939 56.8805 283.443 56.8805C283.839 56.8805 284.176 56.8355 284.455 56.7455C284.743 56.6465 284.977 56.5205 285.157 56.3675C285.346 56.2145 285.481 56.039 285.562 55.841C285.652 55.634 285.697 55.4225 285.697 55.2065C285.697 54.8825 285.598 54.617 285.4 54.41C285.211 54.203 284.955 54.023 284.631 53.87C284.316 53.717 283.951 53.582 283.537 53.465C283.132 53.339 282.714 53.204 282.282 53.06C281.859 52.916 281.44 52.7495 281.026 52.5605C280.621 52.3625 280.257 52.115 279.933 51.818C279.618 51.521 279.361 51.1565 279.163 50.7245C278.974 50.2925 278.88 49.7705 278.88 49.1585C278.88 48.5915 278.992 48.0515 279.217 47.5385C279.442 47.0255 279.771 46.58 280.203 46.202C280.644 45.815 281.188 45.509 281.836 45.284C282.493 45.05 283.249 44.933 284.104 44.933C285.058 44.933 285.927 45.0905 286.71 45.4055C287.493 45.7205 288.145 46.1345 288.667 46.6475L287.911 47.849Z" fill="black"/>
<path fill-rule="evenodd" clip-rule="evenodd" d="M40.3334 18.3333C41.4027 18.3333 42.3203 18.3333 43.1131 18.36C42.7313 18.7989 42.5001 19.3724 42.5001 19.9999V22.4999L40.0001 22.4999C38.6194 22.4999 37.5001 23.6192 37.5001 24.9999C37.5001 26.3806 38.6194 27.4999 40.0001 27.4999H42.5001V29.9999C42.5001 31.3806 43.6194 32.4999 45.0001 32.4999C46.3808 32.4999 47.5001 31.3806 47.5001 29.9999V27.4999H48.3334V43.6666C48.3334 47.4378 48.3334 49.3234 47.1618 50.495C45.9903 51.6666 44.1046 51.6666 40.3334 51.6666H29.6667C25.8955 51.6666 24.0099 51.6666 22.8383 50.495C21.6667 49.3234 21.6667 47.4378 21.6667 43.6666V26.3333C21.6667 22.562 21.6667 20.6764 22.8383 19.5048C24.0099 18.3333 25.8955 18.3333 29.6667 18.3333H40.3334ZM47.4983 19.9058C47.9417 20.5401 48.1497 21.3631 48.2472 22.4999H47.5001V19.9999C47.5001 19.9684 47.4995 19.937 47.4983 19.9058ZM28.3334 33.9999C27.7811 33.9999 27.3334 34.4476 27.3334 34.9999C27.3334 35.5522 27.7811 35.9999 28.3334 35.9999H35.0001C35.5524 35.9999 36.0001 35.5522 36.0001 34.9999C36.0001 34.4476 35.5524 33.9999 35.0001 33.9999H28.3334ZM28.3334 38.9999C27.7811 38.9999 27.3334 39.4476 27.3334 39.9999C27.3334 40.5522 27.7811 40.9999 28.3334 40.9999H38.3334C38.8857 40.9999 39.3334 40.5522 39.3334 39.9999C39.3334 39.4476 38.8857 38.9999 38.3334 38.9999H28.3334ZM28.3334 43.9999C27.7811 43.9999 27.3334 44.4476 27.3334 44.9999C27.3334 45.5522 27.7811 45.9999 28.3334 45.9999H35.0001C35.5524 45.9999 36.0001 45.5522 36.0001 44.9999C36.0001 44.4476 35.5524 43.9999 35.0001 43.9999H28.3334Z" fill="white"/>
<path d="M45 20L45 30" stroke="white" stroke-width="2" stroke-linecap="round"/>
<path d="M50 25L40 25" stroke="white" stroke-width="2" stroke-linecap="round"/>
</svg>
