<svg width="204" height="70" viewBox="0 0 204 70" fill="none" xmlns="http://www.w3.org/2000/svg">
<circle cx="35" cy="35" r="35" fill="#2E3440"/>
<path d="M97.9135 18.9445C97.8455 19.0635 97.7718 19.1513 97.6925 19.208C97.6188 19.259 97.5253 19.2845 97.412 19.2845C97.293 19.2845 97.1627 19.242 97.021 19.157C96.885 19.0663 96.7207 18.9672 96.528 18.8595C96.3353 18.7518 96.1087 18.6555 95.848 18.5705C95.593 18.4798 95.2898 18.4345 94.9385 18.4345C94.6212 18.4345 94.3435 18.4742 94.1055 18.5535C93.8675 18.6272 93.6663 18.732 93.502 18.868C93.3433 19.004 93.2243 19.1683 93.145 19.361C93.0657 19.548 93.026 19.7548 93.026 19.9815C93.026 20.2705 93.1053 20.5113 93.264 20.704C93.4283 20.8967 93.6437 21.061 93.91 21.197C94.1763 21.333 94.4795 21.4548 94.8195 21.5625C95.1595 21.6702 95.508 21.7863 95.865 21.911C96.222 22.03 96.5705 22.1717 96.9105 22.336C97.2505 22.4947 97.5537 22.6987 97.82 22.948C98.0863 23.1917 98.2988 23.492 98.4575 23.849C98.6218 24.206 98.704 24.6395 98.704 25.1495C98.704 25.7048 98.6077 26.2262 98.415 26.7135C98.228 27.1952 97.9503 27.6173 97.582 27.98C97.2193 28.337 96.7745 28.6203 96.2475 28.83C95.7205 29.034 95.117 29.136 94.437 29.136C94.046 29.136 93.6607 29.0963 93.281 29.017C92.9013 28.9433 92.5358 28.8357 92.1845 28.694C91.8388 28.5523 91.513 28.3823 91.207 28.184C90.901 27.9857 90.629 27.7647 90.391 27.521L91.0625 26.4245C91.1192 26.3452 91.1928 26.28 91.2835 26.229C91.3742 26.1723 91.4705 26.144 91.5725 26.144C91.7142 26.144 91.8672 26.2035 92.0315 26.3225C92.1958 26.4358 92.3913 26.5633 92.618 26.705C92.8447 26.8467 93.1082 26.977 93.4085 27.096C93.7145 27.2093 94.08 27.266 94.505 27.266C95.1567 27.266 95.661 27.113 96.018 26.807C96.375 26.4953 96.5535 26.0505 96.5535 25.4725C96.5535 25.1495 96.4713 24.886 96.307 24.682C96.1483 24.478 95.9358 24.308 95.6695 24.172C95.4032 24.0303 95.1 23.9113 94.76 23.815C94.42 23.7187 94.0743 23.6138 93.723 23.5005C93.3717 23.3872 93.026 23.2512 92.686 23.0925C92.346 22.9338 92.0428 22.727 91.7765 22.472C91.5102 22.217 91.2948 21.8997 91.1305 21.52C90.9718 21.1347 90.8925 20.6615 90.8925 20.1005C90.8925 19.6528 90.9803 19.2165 91.156 18.7915C91.3373 18.3665 91.598 17.9897 91.938 17.661C92.278 17.3323 92.6973 17.0688 93.196 16.8705C93.6947 16.6722 94.267 16.573 94.913 16.573C95.6383 16.573 96.307 16.6863 96.919 16.913C97.531 17.1397 98.0523 17.457 98.483 17.865L97.9135 18.9445ZM105.952 23.6365C105.952 23.3645 105.913 23.1095 105.833 22.8715C105.76 22.6278 105.646 22.4153 105.493 22.234C105.34 22.0527 105.145 21.911 104.907 21.809C104.675 21.7013 104.403 21.6475 104.091 21.6475C103.485 21.6475 103.006 21.8203 102.654 22.166C102.309 22.5117 102.088 23.0018 101.991 23.6365H105.952ZM101.949 24.903C101.983 25.3507 102.062 25.7388 102.187 26.0675C102.312 26.3905 102.476 26.6597 102.68 26.875C102.884 27.0847 103.125 27.2433 103.402 27.351C103.686 27.453 103.997 27.504 104.337 27.504C104.677 27.504 104.969 27.4643 105.213 27.385C105.462 27.3057 105.678 27.2178 105.859 27.1215C106.046 27.0252 106.207 26.9373 106.343 26.858C106.485 26.7787 106.621 26.739 106.751 26.739C106.927 26.739 107.057 26.8042 107.142 26.9345L107.746 27.6995C107.514 27.9715 107.253 28.201 106.964 28.388C106.675 28.5693 106.372 28.7167 106.054 28.83C105.743 28.9377 105.423 29.0142 105.094 29.0595C104.771 29.1048 104.456 29.1275 104.15 29.1275C103.544 29.1275 102.98 29.0283 102.459 28.83C101.938 28.626 101.484 28.3285 101.099 27.9375C100.714 27.5408 100.41 27.0535 100.189 26.4755C99.9684 25.8918 99.8579 25.2175 99.8579 24.4525C99.8579 23.8575 99.9542 23.2993 100.147 22.778C100.34 22.251 100.614 21.7948 100.971 21.4095C101.334 21.0185 101.773 20.7097 102.289 20.483C102.81 20.2563 103.397 20.143 104.048 20.143C104.598 20.143 105.105 20.2308 105.57 20.4065C106.035 20.5822 106.434 20.84 106.768 21.18C107.103 21.5143 107.363 21.928 107.55 22.421C107.743 22.9083 107.839 23.4665 107.839 24.0955C107.839 24.4128 107.805 24.6282 107.737 24.7415C107.669 24.8492 107.539 24.903 107.346 24.903H101.949ZM114.022 25.277C113.416 25.3053 112.906 25.3592 112.492 25.4385C112.078 25.5122 111.747 25.6085 111.497 25.7275C111.248 25.8465 111.07 25.9853 110.962 26.144C110.854 26.3027 110.8 26.4755 110.8 26.6625C110.8 27.0308 110.908 27.2943 111.123 27.453C111.344 27.6117 111.631 27.691 111.982 27.691C112.413 27.691 112.784 27.6145 113.095 27.4615C113.413 27.3028 113.722 27.0648 114.022 26.7475V25.277ZM109.211 21.4945C110.214 20.5765 111.421 20.1175 112.832 20.1175C113.342 20.1175 113.798 20.2025 114.2 20.3725C114.603 20.5368 114.943 20.7692 115.22 21.0695C115.498 21.3642 115.708 21.7183 115.849 22.132C115.997 22.5457 116.07 22.999 116.07 23.492V29H115.118C114.92 29 114.767 28.9717 114.659 28.915C114.552 28.8527 114.467 28.7308 114.404 28.5495L114.217 27.9205C113.996 28.1188 113.781 28.2945 113.571 28.4475C113.362 28.5948 113.144 28.7195 112.917 28.8215C112.69 28.9235 112.447 29 112.186 29.051C111.931 29.1077 111.648 29.136 111.336 29.136C110.968 29.136 110.628 29.0878 110.316 28.9915C110.004 28.8895 109.735 28.7393 109.508 28.541C109.282 28.3427 109.106 28.0962 108.981 27.8015C108.857 27.5068 108.794 27.164 108.794 26.773C108.794 26.552 108.831 26.3338 108.905 26.1185C108.979 25.8975 109.098 25.6878 109.262 25.4895C109.432 25.2912 109.65 25.1042 109.916 24.9285C110.183 24.7528 110.509 24.5998 110.894 24.4695C111.285 24.3392 111.738 24.2343 112.254 24.155C112.77 24.07 113.359 24.019 114.022 24.002V23.492C114.022 22.9083 113.897 22.4777 113.648 22.2C113.399 21.9167 113.039 21.775 112.568 21.775C112.228 21.775 111.945 21.8147 111.718 21.894C111.497 21.9733 111.302 22.064 111.132 22.166C110.962 22.2623 110.806 22.3502 110.664 22.4295C110.528 22.5088 110.375 22.5485 110.205 22.5485C110.058 22.5485 109.933 22.5117 109.831 22.438C109.729 22.3587 109.647 22.268 109.585 22.166L109.211 21.4945ZM120.028 21.792C120.3 21.2707 120.623 20.8627 120.997 20.568C121.371 20.2677 121.813 20.1175 122.323 20.1175C122.726 20.1175 123.049 20.2053 123.292 20.381L123.156 21.9535C123.128 22.0555 123.085 22.1292 123.029 22.1745C122.978 22.2142 122.907 22.234 122.816 22.234C122.731 22.234 122.604 22.2198 122.434 22.1915C122.269 22.1632 122.108 22.149 121.949 22.149C121.717 22.149 121.51 22.183 121.329 22.251C121.147 22.319 120.983 22.4182 120.836 22.5485C120.694 22.6732 120.567 22.8262 120.453 23.0075C120.346 23.1888 120.244 23.3957 120.147 23.628V29H118.048V20.279H119.28C119.496 20.279 119.646 20.3187 119.731 20.398C119.816 20.4717 119.872 20.6077 119.901 20.806L120.028 21.792ZM130.388 22.1235C130.326 22.2028 130.263 22.2652 130.201 22.3105C130.144 22.3558 130.059 22.3785 129.946 22.3785C129.838 22.3785 129.734 22.3473 129.632 22.285C129.53 22.217 129.408 22.1433 129.266 22.064C129.124 21.979 128.954 21.9053 128.756 21.843C128.563 21.775 128.323 21.741 128.034 21.741C127.665 21.741 127.342 21.809 127.065 21.945C126.787 22.0753 126.555 22.2652 126.368 22.5145C126.186 22.7638 126.05 23.067 125.96 23.424C125.869 23.7753 125.824 24.1748 125.824 24.6225C125.824 25.0872 125.872 25.5008 125.968 25.8635C126.07 26.2262 126.215 26.5322 126.402 26.7815C126.589 27.0252 126.815 27.2122 127.082 27.3425C127.348 27.4672 127.648 27.5295 127.983 27.5295C128.317 27.5295 128.586 27.4898 128.79 27.4105C129 27.3255 129.175 27.2348 129.317 27.1385C129.459 27.0365 129.581 26.9458 129.683 26.8665C129.79 26.7815 129.909 26.739 130.04 26.739C130.21 26.739 130.337 26.8042 130.422 26.9345L131.026 27.6995C130.793 27.9715 130.541 28.201 130.269 28.388C129.997 28.5693 129.714 28.7167 129.419 28.83C129.13 28.9377 128.83 29.0142 128.518 29.0595C128.212 29.1048 127.906 29.1275 127.6 29.1275C127.062 29.1275 126.555 29.0283 126.079 28.83C125.603 28.626 125.186 28.3313 124.829 27.946C124.472 27.5607 124.189 27.0903 123.979 26.535C123.775 25.974 123.673 25.3365 123.673 24.6225C123.673 23.9822 123.764 23.39 123.945 22.846C124.132 22.2963 124.404 21.8232 124.761 21.4265C125.118 21.0242 125.56 20.7097 126.087 20.483C126.614 20.2563 127.22 20.143 127.906 20.143C128.558 20.143 129.127 20.2478 129.615 20.4575C130.108 20.6672 130.55 20.9675 130.941 21.3585L130.388 22.1235ZM134.441 21.214C134.781 20.8967 135.155 20.6388 135.563 20.4405C135.971 20.2422 136.45 20.143 137 20.143C137.476 20.143 137.898 20.2252 138.266 20.3895C138.635 20.5482 138.941 20.7748 139.184 21.0695C139.434 21.3585 139.621 21.707 139.745 22.115C139.876 22.5173 139.941 22.9622 139.941 23.4495V29H137.841V23.4495C137.841 22.9168 137.719 22.506 137.476 22.217C137.232 21.9223 136.861 21.775 136.362 21.775C136 21.775 135.66 21.8572 135.342 22.0215C135.025 22.1858 134.725 22.4097 134.441 22.693V29H132.342V16.369H134.441V21.214Z" fill="black"/>
<path d="M102.488 51.629L100.112 45.1355C99.9945 44.8475 99.873 44.5055 99.747 44.1095C99.621 43.7135 99.495 43.286 99.369 42.827C99.252 43.286 99.1305 43.718 99.0045 44.123C98.8785 44.519 98.757 44.8655 98.64 45.1625L96.2775 51.629H102.488ZM108.9 59H106.092C105.777 59 105.521 58.9235 105.323 58.7705C105.125 58.6085 104.976 58.4105 104.877 58.1765L103.419 54.194H95.3325L93.8745 58.1765C93.8025 58.3835 93.663 58.5725 93.456 58.7435C93.249 58.9145 92.9925 59 92.6865 59H89.8515L97.533 39.479H101.232L108.9 59ZM119.947 48.0785C119.848 48.2045 119.749 48.3035 119.65 48.3755C119.56 48.4475 119.425 48.4835 119.245 48.4835C119.074 48.4835 118.908 48.434 118.746 48.335C118.584 48.227 118.39 48.11 118.165 47.984C117.94 47.849 117.67 47.732 117.355 47.633C117.049 47.525 116.667 47.471 116.208 47.471C115.623 47.471 115.11 47.579 114.669 47.795C114.228 48.002 113.859 48.3035 113.562 48.6995C113.274 49.0955 113.058 49.577 112.914 50.144C112.77 50.702 112.698 51.3365 112.698 52.0475C112.698 52.7855 112.774 53.4425 112.927 54.0185C113.089 54.5945 113.319 55.0805 113.616 55.4765C113.913 55.8635 114.273 56.1605 114.696 56.3675C115.119 56.5655 115.596 56.6645 116.127 56.6645C116.658 56.6645 117.085 56.6015 117.409 56.4755C117.742 56.3405 118.021 56.1965 118.246 56.0435C118.471 55.8815 118.665 55.7375 118.827 55.6115C118.998 55.4765 119.187 55.409 119.394 55.409C119.664 55.409 119.866 55.5125 120.001 55.7195L120.96 56.9345C120.591 57.3665 120.19 57.731 119.758 58.028C119.326 58.316 118.876 58.55 118.408 58.73C117.949 58.901 117.472 59.0225 116.977 59.0945C116.491 59.1665 116.005 59.2025 115.519 59.2025C114.664 59.2025 113.859 59.045 113.103 58.73C112.347 58.406 111.685 57.938 111.118 57.326C110.551 56.714 110.101 55.967 109.768 55.085C109.444 54.194 109.282 53.1815 109.282 52.0475C109.282 51.0305 109.426 50.09 109.714 49.226C110.011 48.353 110.443 47.6015 111.01 46.9715C111.577 46.3325 112.279 45.833 113.116 45.473C113.953 45.113 114.916 44.933 116.005 44.933C117.04 44.933 117.945 45.0995 118.719 45.4325C119.502 45.7655 120.204 46.2425 120.825 46.8635L119.947 48.0785ZM137.023 59H133.688V47.6465H127.262V55.1525C127.262 55.5845 127.366 55.922 127.573 56.165C127.789 56.408 128.081 56.5295 128.45 56.5295C128.657 56.5295 128.828 56.507 128.963 56.462C129.107 56.408 129.229 56.354 129.328 56.3C129.436 56.246 129.53 56.1965 129.611 56.1515C129.692 56.0975 129.773 56.0705 129.854 56.0705C129.953 56.0705 130.034 56.0975 130.097 56.1515C130.16 56.1965 130.228 56.2685 130.3 56.3675L131.299 57.9875C130.813 58.3925 130.255 58.6985 129.625 58.9055C128.995 59.1125 128.342 59.216 127.667 59.216C126.461 59.216 125.534 58.8785 124.886 58.2035C124.247 57.5195 123.928 56.579 123.928 55.382V47.6465H122.51C122.33 47.6465 122.177 47.588 122.051 47.471C121.925 47.354 121.862 47.1785 121.862 46.9445V45.6215L124.09 45.2435L124.792 41.477C124.837 41.297 124.922 41.1575 125.048 41.0585C125.174 40.9595 125.336 40.91 125.534 40.91H127.262V45.2705H137.023V59ZM137.603 41.0585C137.603 41.3465 137.545 41.621 137.428 41.882C137.311 42.134 137.153 42.3545 136.955 42.5435C136.766 42.7325 136.537 42.8855 136.267 43.0025C136.006 43.1105 135.727 43.1645 135.43 43.1645C135.142 43.1645 134.872 43.1105 134.62 43.0025C134.368 42.8855 134.147 42.7325 133.958 42.5435C133.769 42.3545 133.616 42.134 133.499 41.882C133.391 41.621 133.337 41.3465 133.337 41.0585C133.337 40.7615 133.391 40.487 133.499 40.235C133.616 39.974 133.769 39.749 133.958 39.56C134.147 39.362 134.368 39.209 134.62 39.101C134.872 38.984 135.142 38.9255 135.43 38.9255C135.727 38.9255 136.006 38.984 136.267 39.101C136.537 39.209 136.766 39.362 136.955 39.56C137.153 39.749 137.311 39.974 137.428 40.235C137.545 40.487 137.603 40.7615 137.603 41.0585ZM152.914 45.149L147.419 59H144.395L138.901 45.149H141.655C141.907 45.149 142.114 45.2075 142.276 45.3245C142.447 45.4415 142.559 45.59 142.613 45.77L145.286 53.168C145.43 53.6 145.556 54.023 145.664 54.437C145.772 54.851 145.867 55.265 145.948 55.679C146.038 55.265 146.137 54.851 146.245 54.437C146.353 54.023 146.483 53.6 146.636 53.168L149.363 45.77C149.426 45.59 149.539 45.4415 149.701 45.3245C149.863 45.2075 150.056 45.149 150.281 45.149H152.914ZM158.147 45.149V59H154.799V45.149H158.147ZM158.606 41.1125C158.606 41.4005 158.547 41.6705 158.43 41.9225C158.313 42.1745 158.156 42.395 157.958 42.584C157.769 42.773 157.544 42.926 157.283 43.043C157.022 43.151 156.743 43.205 156.446 43.205C156.158 43.205 155.883 43.151 155.622 43.043C155.37 42.926 155.15 42.773 154.961 42.584C154.772 42.395 154.619 42.1745 154.502 41.9225C154.394 41.6705 154.34 41.4005 154.34 41.1125C154.34 40.8155 154.394 40.5365 154.502 40.2755C154.619 40.0145 154.772 39.7895 154.961 39.6005C155.15 39.4115 155.37 39.263 155.622 39.155C155.883 39.038 156.158 38.9795 156.446 38.9795C156.743 38.9795 157.022 39.038 157.283 39.155C157.544 39.263 157.769 39.4115 157.958 39.6005C158.156 39.7895 158.313 40.0145 158.43 40.2755C158.547 40.5365 158.606 40.8155 158.606 41.1125ZM175.519 59H172.184V47.6465H165.758V55.1525C165.758 55.5845 165.862 55.922 166.069 56.165C166.285 56.408 166.577 56.5295 166.946 56.5295C167.153 56.5295 167.324 56.507 167.459 56.462C167.603 56.408 167.725 56.354 167.824 56.3C167.932 56.246 168.026 56.1965 168.107 56.1515C168.188 56.0975 168.269 56.0705 168.35 56.0705C168.449 56.0705 168.53 56.0975 168.593 56.1515C168.656 56.1965 168.724 56.2685 168.796 56.3675L169.795 57.9875C169.309 58.3925 168.751 58.6985 168.121 58.9055C167.491 59.1125 166.838 59.216 166.163 59.216C164.957 59.216 164.03 58.8785 163.382 58.2035C162.743 57.5195 162.424 56.579 162.424 55.382V47.6465H161.006C160.826 47.6465 160.673 47.588 160.547 47.471C160.421 47.354 160.358 47.1785 160.358 46.9445V45.6215L162.586 45.2435L163.288 41.477C163.333 41.297 163.418 41.1575 163.544 41.0585C163.67 40.9595 163.832 40.91 164.03 40.91H165.758V45.2705H175.519V59ZM176.099 41.0585C176.099 41.3465 176.041 41.621 175.924 41.882C175.807 42.134 175.649 42.3545 175.451 42.5435C175.262 42.7325 175.033 42.8855 174.763 43.0025C174.502 43.1105 174.223 43.1645 173.926 43.1645C173.638 43.1645 173.368 43.1105 173.116 43.0025C172.864 42.8855 172.643 42.7325 172.454 42.5435C172.265 42.3545 172.112 42.134 171.995 41.882C171.887 41.621 171.833 41.3465 171.833 41.0585C171.833 40.7615 171.887 40.487 171.995 40.235C172.112 39.974 172.265 39.749 172.454 39.56C172.643 39.362 172.864 39.209 173.116 39.101C173.368 38.984 173.638 38.9255 173.926 38.9255C174.223 38.9255 174.502 38.984 174.763 39.101C175.033 39.209 175.262 39.362 175.451 39.56C175.649 39.749 175.807 39.974 175.924 40.235C176.041 40.487 176.099 40.7615 176.099 41.0585ZM187.846 50.4815C187.846 50.0495 187.783 49.6445 187.657 49.2665C187.54 48.8795 187.36 48.542 187.117 48.254C186.874 47.966 186.563 47.741 186.185 47.579C185.816 47.408 185.384 47.3225 184.889 47.3225C183.926 47.3225 183.166 47.597 182.608 48.146C182.059 48.695 181.708 49.4735 181.555 50.4815H187.846ZM181.487 52.493C181.541 53.204 181.667 53.8205 181.865 54.3425C182.063 54.8555 182.324 55.283 182.648 55.625C182.972 55.958 183.355 56.21 183.796 56.381C184.246 56.543 184.741 56.624 185.281 56.624C185.821 56.624 186.284 56.561 186.671 56.435C187.067 56.309 187.409 56.1695 187.697 56.0165C187.994 55.8635 188.251 55.724 188.467 55.598C188.692 55.472 188.908 55.409 189.115 55.409C189.394 55.409 189.601 55.5125 189.736 55.7195L190.694 56.9345C190.325 57.3665 189.911 57.731 189.452 58.028C188.993 58.316 188.512 58.55 188.008 58.73C187.513 58.901 187.004 59.0225 186.482 59.0945C185.969 59.1665 185.47 59.2025 184.984 59.2025C184.021 59.2025 183.125 59.045 182.297 58.73C181.469 58.406 180.749 57.9335 180.137 57.3125C179.525 56.6825 179.044 55.9085 178.693 54.9905C178.342 54.0635 178.166 52.9925 178.166 51.7775C178.166 50.8325 178.319 49.946 178.625 49.118C178.931 48.281 179.368 47.5565 179.935 46.9445C180.511 46.3235 181.208 45.833 182.027 45.473C182.855 45.113 183.787 44.933 184.822 44.933C185.695 44.933 186.5 45.0725 187.238 45.3515C187.976 45.6305 188.611 46.04 189.142 46.58C189.673 47.111 190.087 47.768 190.384 48.551C190.69 49.325 190.843 50.2115 190.843 51.2105C190.843 51.7145 190.789 52.0565 190.681 52.2365C190.573 52.4075 190.366 52.493 190.06 52.493H181.487ZM201.796 47.849C201.706 47.993 201.612 48.0965 201.513 48.1595C201.414 48.2135 201.288 48.2405 201.135 48.2405C200.973 48.2405 200.797 48.1955 200.608 48.1055C200.428 48.0155 200.217 47.9165 199.974 47.8085C199.731 47.6915 199.452 47.588 199.137 47.498C198.831 47.408 198.466 47.363 198.043 47.363C197.386 47.363 196.869 47.5025 196.491 47.7815C196.122 48.0605 195.937 48.425 195.937 48.875C195.937 49.172 196.032 49.424 196.221 49.631C196.419 49.829 196.675 50.0045 196.99 50.1575C197.314 50.3105 197.679 50.45 198.084 50.576C198.489 50.693 198.898 50.8235 199.312 50.9675C199.735 51.1115 200.149 51.278 200.554 51.467C200.959 51.647 201.319 51.881 201.634 52.169C201.958 52.448 202.215 52.7855 202.404 53.1815C202.602 53.5775 202.701 54.0545 202.701 54.6125C202.701 55.2785 202.579 55.895 202.336 56.462C202.102 57.02 201.751 57.506 201.283 57.92C200.815 58.325 200.235 58.6445 199.542 58.8785C198.858 59.1035 198.066 59.216 197.166 59.216C196.689 59.216 196.221 59.171 195.762 59.081C195.312 59 194.875 58.883 194.452 58.73C194.038 58.577 193.651 58.397 193.291 58.19C192.94 57.983 192.63 57.758 192.36 57.515L193.129 56.246C193.228 56.093 193.345 55.976 193.48 55.895C193.615 55.814 193.786 55.7735 193.993 55.7735C194.2 55.7735 194.394 55.832 194.574 55.949C194.763 56.066 194.979 56.192 195.222 56.327C195.465 56.462 195.748 56.588 196.072 56.705C196.405 56.822 196.824 56.8805 197.328 56.8805C197.724 56.8805 198.061 56.8355 198.34 56.7455C198.628 56.6465 198.862 56.5205 199.042 56.3675C199.231 56.2145 199.366 56.039 199.447 55.841C199.537 55.634 199.582 55.4225 199.582 55.2065C199.582 54.8825 199.483 54.617 199.285 54.41C199.096 54.203 198.84 54.023 198.516 53.87C198.201 53.717 197.836 53.582 197.422 53.465C197.017 53.339 196.599 53.204 196.167 53.06C195.744 52.916 195.325 52.7495 194.911 52.5605C194.506 52.3625 194.142 52.115 193.818 51.818C193.503 51.521 193.246 51.1565 193.048 50.7245C192.859 50.2925 192.765 49.7705 192.765 49.1585C192.765 48.5915 192.877 48.0515 193.102 47.5385C193.327 47.0255 193.656 46.58 194.088 46.202C194.529 45.815 195.073 45.509 195.721 45.284C196.378 45.05 197.134 44.933 197.989 44.933C198.943 44.933 199.812 45.0905 200.595 45.4055C201.378 45.7205 202.03 46.1345 202.552 46.6475L201.796 47.849Z" fill="black"/>
<path fill-rule="evenodd" clip-rule="evenodd" d="M33.3334 45.0001C39.7767 45.0001 45.0001 39.7767 45.0001 33.3334C45.0001 26.8901 39.7767 21.6667 33.3334 21.6667C26.8901 21.6667 21.6667 26.8901 21.6667 33.3334C21.6667 39.7767 26.8901 45.0001 33.3334 45.0001ZM33.3334 25.6667C32.3266 25.6667 31.3297 25.8651 30.3995 26.2503C29.4693 26.6356 28.6242 27.2003 27.9123 27.9123C27.2003 28.6242 26.6356 29.4693 26.2503 30.3995C25.8651 31.3297 25.6667 32.3266 25.6667 33.3334C25.6667 33.8857 26.1145 34.3334 26.6667 34.3334C27.219 34.3334 27.6667 33.8857 27.6667 33.3334C27.6667 32.5893 27.8133 31.8524 28.0981 31.1649C28.3829 30.4774 28.8003 29.8527 29.3265 29.3265C29.8527 28.8003 30.4774 28.3829 31.1649 28.0981C31.8524 27.8133 32.5893 27.6667 33.3334 27.6667C33.8857 27.6667 34.3334 27.219 34.3334 26.6667C34.3334 26.1145 33.8857 25.6667 33.3334 25.6667Z" fill="white"/>
<path d="M48.3333 48.3333L45 45" stroke="white" stroke-width="2" stroke-linecap="round"/>
</svg>
