<svg width="251" height="27" viewBox="0 0 251 27" fill="none" xmlns="http://www.w3.org/2000/svg">
<path d="M7.614 14.094C8.61 14.094 9.486 13.962 10.242 13.698C11.01 13.434 11.652 13.068 12.168 12.6C12.696 12.12 13.092 11.55 13.356 10.89C13.62 10.23 13.752 9.504 13.752 8.712C13.752 7.068 13.242 5.784 12.222 4.86C11.214 3.936 9.678 3.474 7.614 3.474H3.474V14.094H7.614ZM7.614 0.719999C9.246 0.719999 10.662 0.912 11.862 1.296C13.074 1.668 14.076 2.202 14.868 2.898C15.66 3.594 16.248 4.434 16.632 5.418C17.028 6.402 17.226 7.5 17.226 8.712C17.226 9.912 17.016 11.01 16.596 12.006C16.176 13.002 15.558 13.86 14.742 14.58C13.938 15.3 12.936 15.864 11.736 16.272C10.548 16.668 9.174 16.866 7.614 16.866H3.474V26.514H0V0.719999H7.614Z" fill="#EA918D"/>
<path d="M30.1846 18.306C28.7086 18.354 27.4486 18.474 26.4046 18.666C25.3726 18.846 24.5266 19.086 23.8666 19.386C23.2186 19.686 22.7446 20.04 22.4446 20.448C22.1566 20.856 22.0126 21.312 22.0126 21.816C22.0126 22.296 22.0906 22.71 22.2466 23.058C22.4026 23.406 22.6126 23.694 22.8766 23.922C23.1526 24.138 23.4706 24.3 23.8306 24.408C24.2026 24.504 24.5986 24.552 25.0186 24.552C25.5826 24.552 26.0986 24.498 26.5666 24.39C27.0346 24.27 27.4726 24.102 27.8806 23.886C28.3006 23.67 28.6966 23.412 29.0686 23.112C29.4526 22.812 29.8246 22.47 30.1846 22.086V18.306ZM19.8346 10.854C20.8426 9.882 21.9286 9.156 23.0926 8.676C24.2566 8.196 25.5466 7.956 26.9626 7.956C27.9826 7.956 28.8886 8.124 29.6806 8.46C30.4726 8.796 31.1386 9.264 31.6786 9.864C32.2186 10.464 32.6266 11.19 32.9026 12.042C33.1786 12.894 33.3166 13.83 33.3166 14.85V26.514H31.8946C31.5826 26.514 31.3426 26.466 31.1746 26.37C31.0066 26.262 30.8746 26.058 30.7786 25.758L30.4186 24.03C29.9386 24.474 29.4706 24.87 29.0146 25.218C28.5586 25.554 28.0786 25.842 27.5746 26.082C27.0706 26.31 26.5306 26.484 25.9546 26.604C25.3906 26.736 24.7606 26.802 24.0646 26.802C23.3566 26.802 22.6906 26.706 22.0666 26.514C21.4426 26.31 20.8966 26.01 20.4286 25.614C19.9726 25.218 19.6066 24.72 19.3306 24.12C19.0666 23.508 18.9346 22.788 18.9346 21.96C18.9346 21.24 19.1326 20.55 19.5286 19.89C19.9246 19.218 20.5666 18.624 21.4546 18.108C22.3426 17.592 23.5006 17.172 24.9286 16.848C26.3566 16.512 28.1086 16.32 30.1846 16.272V14.85C30.1846 13.434 29.8786 12.366 29.2666 11.646C28.6546 10.914 27.7606 10.548 26.5846 10.548C25.7926 10.548 25.1266 10.65 24.5866 10.854C24.0586 11.046 23.5966 11.268 23.2006 11.52C22.8166 11.76 22.4806 11.982 22.1926 12.186C21.9166 12.378 21.6406 12.474 21.3646 12.474C21.1486 12.474 20.9626 12.42 20.8066 12.312C20.6506 12.192 20.5186 12.048 20.4106 11.88L19.8346 10.854Z" fill="#EA918D"/>
<path d="M41.4191 0V15.606H42.2471C42.4871 15.606 42.6851 15.576 42.8411 15.516C43.0091 15.444 43.1831 15.306 43.3631 15.102L49.1231 8.928C49.2911 8.724 49.4651 8.568 49.6451 8.46C49.8371 8.34 50.0891 8.28 50.4011 8.28H53.2991L46.5851 15.426C46.2611 15.834 45.9131 16.152 45.5411 16.38C45.7571 16.524 45.9491 16.692 46.1171 16.884C46.2971 17.064 46.4651 17.274 46.6211 17.514L53.7491 26.514H50.8871C50.6111 26.514 50.3711 26.472 50.1671 26.388C49.9751 26.292 49.8071 26.124 49.6631 25.884L43.6691 18.414C43.4891 18.162 43.3091 18 43.1291 17.928C42.9611 17.844 42.6971 17.802 42.3371 17.802H41.4191V26.514H38.1971V0H41.4191Z" fill="#EA918D"/>
<path d="M62.0764 26.802C60.6364 26.802 59.5264 26.4 58.7464 25.596C57.9784 24.792 57.5944 23.634 57.5944 22.122V10.962H55.3984C55.2064 10.962 55.0444 10.908 54.9124 10.8C54.7804 10.68 54.7144 10.5 54.7144 10.26V8.982L57.7024 8.604L58.4404 2.97C58.4764 2.79 58.5544 2.646 58.6744 2.538C58.8064 2.418 58.9744 2.358 59.1784 2.358H60.7984V8.64H66.0724V10.962H60.7984V21.906C60.7984 22.674 60.9844 23.244 61.3564 23.616C61.7284 23.988 62.2084 24.174 62.7964 24.174C63.1324 24.174 63.4204 24.132 63.6604 24.048C63.9124 23.952 64.1284 23.85 64.3084 23.742C64.4884 23.634 64.6384 23.538 64.7584 23.454C64.8904 23.358 65.0044 23.31 65.1004 23.31C65.2684 23.31 65.4184 23.412 65.5504 23.616L66.4864 25.146C65.9344 25.662 65.2684 26.07 64.4884 26.37C63.7084 26.658 62.9044 26.802 62.0764 26.802Z" fill="#EA918D"/>
<path d="M76.9613 7.992C78.2933 7.992 79.4932 8.214 80.5612 8.658C81.6292 9.102 82.5413 9.732 83.2972 10.548C84.0532 11.364 84.6293 12.354 85.0253 13.518C85.4333 14.67 85.6373 15.96 85.6373 17.388C85.6373 18.828 85.4333 20.124 85.0253 21.276C84.6293 22.428 84.0532 23.412 83.2972 24.228C82.5413 25.044 81.6292 25.674 80.5612 26.118C79.4932 26.55 78.2933 26.766 76.9613 26.766C75.6172 26.766 74.4053 26.55 73.3252 26.118C72.2572 25.674 71.3452 25.044 70.5892 24.228C69.8333 23.412 69.2513 22.428 68.8433 21.276C68.4473 20.124 68.2493 18.828 68.2493 17.388C68.2493 15.96 68.4473 14.67 68.8433 13.518C69.2513 12.354 69.8333 11.364 70.5892 10.548C71.3452 9.732 72.2572 9.102 73.3252 8.658C74.4053 8.214 75.6172 7.992 76.9613 7.992ZM76.9613 24.264C78.7613 24.264 80.1053 23.664 80.9933 22.464C81.8813 21.252 82.3252 19.566 82.3252 17.406C82.3252 15.234 81.8813 13.542 80.9933 12.33C80.1053 11.118 78.7613 10.512 76.9613 10.512C76.0492 10.512 75.2513 10.668 74.5673 10.98C73.8953 11.292 73.3313 11.742 72.8753 12.33C72.4313 12.918 72.0952 13.644 71.8672 14.508C71.6512 15.36 71.5433 16.326 71.5433 17.406C71.5433 19.566 71.9873 21.252 72.8753 22.464C73.7753 23.664 75.1373 24.264 76.9613 24.264Z" fill="#EA918D"/>
<path d="M92.743 11.934C93.319 10.686 94.027 9.714 94.867 9.018C95.707 8.31 96.733 7.956 97.945 7.956C98.329 7.956 98.695 7.998 99.043 8.082C99.403 8.166 99.721 8.298 99.997 8.478L99.763 10.872C99.691 11.172 99.511 11.322 99.223 11.322C99.055 11.322 98.809 11.286 98.485 11.214C98.161 11.142 97.795 11.106 97.387 11.106C96.811 11.106 96.295 11.19 95.839 11.358C95.395 11.526 94.993 11.778 94.633 12.114C94.285 12.438 93.967 12.846 93.679 13.338C93.403 13.818 93.151 14.37 92.923 14.994V26.514H89.701V8.28H91.537C91.885 8.28 92.125 8.346 92.257 8.478C92.389 8.61 92.479 8.838 92.527 9.162L92.743 11.934Z" fill="#EA918D"/>
<path d="M124.522 14.112V24.012C123.226 24.948 121.84 25.65 120.364 26.118C118.9 26.574 117.292 26.802 115.54 26.802C113.464 26.802 111.592 26.484 109.924 25.848C108.256 25.2 106.828 24.3 105.64 23.148C104.464 21.984 103.558 20.592 102.922 18.972C102.286 17.352 101.968 15.57 101.968 13.626C101.968 11.658 102.274 9.864 102.886 8.244C103.51 6.624 104.392 5.238 105.532 4.086C106.672 2.922 108.058 2.022 109.69 1.386C111.322 0.75 113.146 0.431998 115.162 0.431998C116.182 0.431998 117.13 0.509999 118.006 0.665999C118.882 0.81 119.692 1.026 120.436 1.314C121.18 1.59 121.87 1.932 122.506 2.34C123.142 2.736 123.736 3.186 124.288 3.69L123.298 5.274C123.142 5.514 122.938 5.67 122.686 5.742C122.446 5.802 122.176 5.742 121.876 5.562C121.588 5.394 121.258 5.19 120.886 4.95C120.514 4.71 120.058 4.482 119.518 4.266C118.99 4.038 118.36 3.846 117.628 3.69C116.908 3.534 116.05 3.456 115.054 3.456C113.602 3.456 112.288 3.696 111.112 4.176C109.936 4.644 108.934 5.322 108.106 6.21C107.278 7.086 106.642 8.154 106.198 9.414C105.754 10.662 105.532 12.066 105.532 13.626C105.532 15.246 105.76 16.698 106.216 17.982C106.684 19.254 107.344 20.34 108.196 21.24C109.06 22.128 110.104 22.806 111.328 23.274C112.552 23.742 113.926 23.976 115.45 23.976C116.65 23.976 117.712 23.844 118.636 23.58C119.572 23.304 120.484 22.926 121.372 22.446V16.776H117.358C117.13 16.776 116.944 16.71 116.8 16.578C116.668 16.446 116.602 16.284 116.602 16.092V14.112H124.522Z" fill="#EA918D"/>
<path d="M136.586 7.992C137.918 7.992 139.118 8.214 140.186 8.658C141.254 9.102 142.166 9.732 142.922 10.548C143.678 11.364 144.254 12.354 144.65 13.518C145.058 14.67 145.262 15.96 145.262 17.388C145.262 18.828 145.058 20.124 144.65 21.276C144.254 22.428 143.678 23.412 142.922 24.228C142.166 25.044 141.254 25.674 140.186 26.118C139.118 26.55 137.918 26.766 136.586 26.766C135.242 26.766 134.03 26.55 132.95 26.118C131.882 25.674 130.97 25.044 130.214 24.228C129.458 23.412 128.876 22.428 128.468 21.276C128.072 20.124 127.874 18.828 127.874 17.388C127.874 15.96 128.072 14.67 128.468 13.518C128.876 12.354 129.458 11.364 130.214 10.548C130.97 9.732 131.882 9.102 132.95 8.658C134.03 8.214 135.242 7.992 136.586 7.992ZM136.586 24.264C138.386 24.264 139.73 23.664 140.618 22.464C141.506 21.252 141.95 19.566 141.95 17.406C141.95 15.234 141.506 13.542 140.618 12.33C139.73 11.118 138.386 10.512 136.586 10.512C135.674 10.512 134.876 10.668 134.192 10.98C133.52 11.292 132.956 11.742 132.5 12.33C132.056 12.918 131.72 13.644 131.492 14.508C131.276 15.36 131.168 16.326 131.168 17.406C131.168 19.566 131.612 21.252 132.5 22.464C133.4 23.664 134.762 24.264 136.586 24.264Z" fill="#EA918D"/>
<path d="M181.504 0.719999L173.458 26.514H170.326L163.792 6.84C163.732 6.648 163.672 6.444 163.612 6.228C163.564 6.012 163.51 5.784 163.45 5.544C163.39 5.784 163.33 6.012 163.27 6.228C163.21 6.444 163.15 6.648 163.09 6.84L156.52 26.514H153.388L145.342 0.719999H148.24C148.552 0.719999 148.81 0.797999 149.014 0.954C149.23 1.11 149.368 1.308 149.428 1.548L154.756 19.476C154.84 19.8 154.918 20.148 154.99 20.52C155.074 20.892 155.152 21.288 155.224 21.708C155.308 21.288 155.392 20.892 155.476 20.52C155.572 20.136 155.674 19.788 155.782 19.476L161.848 1.548C161.92 1.344 162.058 1.158 162.262 0.989999C162.478 0.809999 162.736 0.719999 163.036 0.719999H164.044C164.356 0.719999 164.608 0.797999 164.8 0.954C164.992 1.11 165.136 1.308 165.232 1.548L171.28 19.476C171.388 19.788 171.484 20.124 171.568 20.484C171.664 20.844 171.754 21.222 171.838 21.618C171.898 21.222 171.964 20.844 172.036 20.484C172.108 20.124 172.186 19.788 172.27 19.476L177.616 1.548C177.676 1.332 177.808 1.14 178.012 0.972C178.228 0.803999 178.486 0.719999 178.786 0.719999H181.504Z" fill="#EA918D"/>
<path d="M187.634 10.71C188.414 9.882 189.278 9.222 190.226 8.73C191.174 8.238 192.266 7.992 193.502 7.992C194.498 7.992 195.374 8.16 196.13 8.496C196.898 8.82 197.534 9.288 198.038 9.9C198.554 10.5 198.944 11.226 199.208 12.078C199.472 12.93 199.604 13.872 199.604 14.904V26.514H196.382V14.904C196.382 13.524 196.064 12.456 195.428 11.7C194.804 10.932 193.85 10.548 192.566 10.548C191.618 10.548 190.73 10.776 189.902 11.232C189.086 11.688 188.33 12.306 187.634 13.086V26.514H184.412V0H187.634V10.71Z" fill="#EA918D"/>
<path d="M216.69 15.408C216.69 14.664 216.582 13.986 216.366 13.374C216.162 12.75 215.856 12.216 215.448 11.772C215.052 11.316 214.566 10.968 213.99 10.728C213.414 10.476 212.76 10.35 212.028 10.35C210.492 10.35 209.274 10.8 208.374 11.7C207.486 12.588 206.934 13.824 206.718 15.408H216.69ZM219.282 23.958C218.886 24.438 218.412 24.858 217.86 25.218C217.308 25.566 216.714 25.854 216.078 26.082C215.454 26.31 214.806 26.478 214.134 26.586C213.462 26.706 212.796 26.766 212.136 26.766C210.876 26.766 209.712 26.556 208.644 26.136C207.588 25.704 206.67 25.08 205.89 24.264C205.122 23.436 204.522 22.416 204.09 21.204C203.658 19.992 203.442 18.6 203.442 17.028C203.442 15.756 203.634 14.568 204.018 13.464C204.414 12.36 204.978 11.406 205.71 10.602C206.442 9.786 207.336 9.15 208.392 8.694C209.448 8.226 210.636 7.992 211.956 7.992C213.048 7.992 214.056 8.178 214.98 8.55C215.916 8.91 216.72 9.438 217.392 10.134C218.076 10.818 218.61 11.67 218.994 12.69C219.378 13.698 219.57 14.85 219.57 16.146C219.57 16.65 219.516 16.986 219.408 17.154C219.3 17.322 219.096 17.406 218.796 17.406H206.61C206.646 18.558 206.802 19.56 207.078 20.412C207.366 21.264 207.762 21.978 208.266 22.554C208.77 23.118 209.37 23.544 210.066 23.832C210.762 24.108 211.542 24.246 212.406 24.246C213.21 24.246 213.9 24.156 214.476 23.976C215.064 23.784 215.568 23.58 215.988 23.364C216.408 23.148 216.756 22.95 217.032 22.77C217.32 22.578 217.566 22.482 217.77 22.482C218.034 22.482 218.238 22.584 218.382 22.788L219.282 23.958Z" fill="#EA918D"/>
<path d="M226.548 11.934C227.124 10.686 227.832 9.714 228.672 9.018C229.512 8.31 230.538 7.956 231.75 7.956C232.134 7.956 232.5 7.998 232.848 8.082C233.208 8.166 233.526 8.298 233.802 8.478L233.568 10.872C233.496 11.172 233.316 11.322 233.028 11.322C232.86 11.322 232.614 11.286 232.29 11.214C231.966 11.142 231.6 11.106 231.192 11.106C230.616 11.106 230.1 11.19 229.644 11.358C229.2 11.526 228.798 11.778 228.438 12.114C228.09 12.438 227.772 12.846 227.484 13.338C227.208 13.818 226.956 14.37 226.728 14.994V26.514H223.506V8.28H225.342C225.69 8.28 225.93 8.346 226.062 8.478C226.194 8.61 226.284 8.838 226.332 9.162L226.548 11.934Z" fill="#EA918D"/>
<path d="M248.085 15.408C248.085 14.664 247.977 13.986 247.761 13.374C247.557 12.75 247.251 12.216 246.843 11.772C246.447 11.316 245.961 10.968 245.385 10.728C244.809 10.476 244.155 10.35 243.423 10.35C241.887 10.35 240.669 10.8 239.769 11.7C238.881 12.588 238.329 13.824 238.113 15.408H248.085ZM250.677 23.958C250.281 24.438 249.807 24.858 249.255 25.218C248.703 25.566 248.109 25.854 247.473 26.082C246.849 26.31 246.201 26.478 245.529 26.586C244.857 26.706 244.191 26.766 243.531 26.766C242.271 26.766 241.107 26.556 240.039 26.136C238.983 25.704 238.065 25.08 237.285 24.264C236.517 23.436 235.917 22.416 235.485 21.204C235.053 19.992 234.837 18.6 234.837 17.028C234.837 15.756 235.029 14.568 235.413 13.464C235.809 12.36 236.373 11.406 237.105 10.602C237.837 9.786 238.731 9.15 239.787 8.694C240.843 8.226 242.031 7.992 243.351 7.992C244.443 7.992 245.451 8.178 246.375 8.55C247.311 8.91 248.115 9.438 248.787 10.134C249.471 10.818 250.005 11.67 250.389 12.69C250.773 13.698 250.965 14.85 250.965 16.146C250.965 16.65 250.911 16.986 250.803 17.154C250.695 17.322 250.491 17.406 250.191 17.406H238.005C238.041 18.558 238.197 19.56 238.473 20.412C238.761 21.264 239.157 21.978 239.661 22.554C240.165 23.118 240.765 23.544 241.461 23.832C242.157 24.108 242.937 24.246 243.801 24.246C244.605 24.246 245.295 24.156 245.871 23.976C246.459 23.784 246.963 23.58 247.383 23.364C247.803 23.148 248.151 22.95 248.427 22.77C248.715 22.578 248.961 22.482 249.165 22.482C249.429 22.482 249.633 22.584 249.777 22.788L250.677 23.958Z" fill="#EA918D"/>
</svg>
