<svg width="91" height="39" viewBox="0 0 91 39" fill="none" xmlns="http://www.w3.org/2000/svg">
<rect width="91" height="39" rx="19.5" fill="#EA918D"/>
<path d="M28.952 27.044V29H19.196V11.804H21.512V27.044H28.952ZM35.2769 16.652C36.1649 16.652 36.9649 16.8 37.6769 17.096C38.3889 17.392 38.9969 17.812 39.5009 18.356C40.0049 18.9 40.3889 19.56 40.6529 20.336C40.9249 21.104 41.0609 21.964 41.0609 22.916C41.0609 23.876 40.9249 24.74 40.6529 25.508C40.3889 26.276 40.0049 26.932 39.5009 27.476C38.9969 28.02 38.3889 28.44 37.6769 28.736C36.9649 29.024 36.1649 29.168 35.2769 29.168C34.3809 29.168 33.5729 29.024 32.8529 28.736C32.1409 28.44 31.5329 28.02 31.0289 27.476C30.5249 26.932 30.1369 26.276 29.8649 25.508C29.6009 24.74 29.4689 23.876 29.4689 22.916C29.4689 21.964 29.6009 21.104 29.8649 20.336C30.1369 19.56 30.5249 18.9 31.0289 18.356C31.5329 17.812 32.1409 17.392 32.8529 17.096C33.5729 16.8 34.3809 16.652 35.2769 16.652ZM35.2769 27.5C36.4769 27.5 37.3729 27.1 37.9649 26.3C38.5569 25.492 38.8529 24.368 38.8529 22.928C38.8529 21.48 38.5569 20.352 37.9649 19.544C37.3729 18.736 36.4769 18.332 35.2769 18.332C34.6689 18.332 34.1369 18.436 33.6809 18.644C33.2329 18.852 32.8569 19.152 32.5529 19.544C32.2569 19.936 32.0329 20.42 31.8809 20.996C31.7369 21.564 31.6649 22.208 31.6649 22.928C31.6649 24.368 31.9609 25.492 32.5529 26.3C33.1529 27.1 34.0609 27.5 35.2769 27.5ZM47.9358 23.06C48.3678 23.06 48.7478 23 49.0758 22.88C49.4038 22.76 49.6798 22.592 49.9038 22.376C50.1278 22.16 50.2958 21.904 50.4078 21.608C50.5198 21.304 50.5758 20.972 50.5758 20.612C50.5758 19.868 50.3478 19.276 49.8918 18.836C49.4438 18.396 48.7918 18.176 47.9358 18.176C47.0718 18.176 46.4118 18.396 45.9558 18.836C45.5078 19.276 45.2838 19.868 45.2838 20.612C45.2838 20.972 45.3398 21.304 45.4518 21.608C45.5718 21.904 45.7438 22.16 45.9678 22.376C46.1918 22.592 46.4678 22.76 46.7958 22.88C47.1238 23 47.5038 23.06 47.9358 23.06ZM51.7878 29.66C51.7878 29.364 51.7038 29.124 51.5358 28.94C51.3678 28.756 51.1398 28.612 50.8518 28.508C50.5718 28.404 50.2438 28.332 49.8678 28.292C49.4918 28.244 49.0918 28.208 48.6678 28.184C48.2518 28.16 47.8278 28.136 47.3958 28.112C46.9638 28.088 46.5478 28.048 46.1478 27.992C45.6998 28.2 45.3318 28.464 45.0438 28.784C44.7638 29.096 44.6238 29.464 44.6238 29.888C44.6238 30.16 44.6918 30.412 44.8278 30.644C44.9718 30.884 45.1878 31.088 45.4758 31.256C45.7638 31.432 46.1238 31.568 46.5558 31.664C46.9958 31.768 47.5118 31.82 48.1038 31.82C48.6798 31.82 49.1958 31.768 49.6518 31.664C50.1078 31.56 50.4918 31.412 50.8038 31.22C51.1238 31.028 51.3678 30.8 51.5358 30.536C51.7038 30.272 51.7878 29.98 51.7878 29.66ZM53.9598 17.324V18.116C53.9598 18.38 53.7918 18.548 53.4558 18.62L52.0758 18.8C52.3478 19.328 52.4838 19.912 52.4838 20.552C52.4838 21.144 52.3678 21.684 52.1358 22.172C51.9118 22.652 51.5998 23.064 51.1998 23.408C50.7998 23.752 50.3198 24.016 49.7598 24.2C49.1998 24.384 48.5918 24.476 47.9358 24.476C47.3678 24.476 46.8318 24.408 46.3278 24.272C46.0718 24.432 45.8758 24.604 45.7398 24.788C45.6038 24.964 45.5358 25.144 45.5358 25.328C45.5358 25.616 45.6518 25.836 45.8838 25.988C46.1238 26.132 46.4358 26.236 46.8198 26.3C47.2038 26.364 47.6398 26.404 48.1278 26.42C48.6238 26.436 49.1278 26.464 49.6398 26.504C50.1598 26.536 50.6638 26.596 51.1518 26.684C51.6478 26.772 52.0878 26.916 52.4718 27.116C52.8558 27.316 53.1638 27.592 53.3958 27.944C53.6358 28.296 53.7558 28.752 53.7558 29.312C53.7558 29.832 53.6238 30.336 53.3598 30.824C53.1038 31.312 52.7318 31.744 52.2438 32.12C51.7558 32.504 51.1558 32.808 50.4438 33.032C49.7398 33.264 48.9438 33.38 48.0558 33.38C47.1678 33.38 46.3918 33.292 45.7278 33.116C45.0638 32.94 44.5118 32.704 44.0718 32.408C43.6318 32.112 43.2998 31.768 43.0758 31.376C42.8598 30.992 42.7518 30.588 42.7518 30.164C42.7518 29.564 42.9398 29.056 43.3158 28.64C43.6918 28.224 44.2078 27.892 44.8638 27.644C44.5038 27.484 44.2158 27.272 43.9998 27.008C43.7918 26.736 43.6878 26.372 43.6878 25.916C43.6878 25.74 43.7198 25.56 43.7838 25.376C43.8478 25.184 43.9438 24.996 44.0718 24.812C44.2078 24.62 44.3718 24.44 44.5638 24.272C44.7558 24.104 44.9798 23.956 45.2358 23.828C44.6358 23.492 44.1678 23.048 43.8318 22.496C43.4958 21.936 43.3278 21.288 43.3278 20.552C43.3278 19.96 43.4398 19.424 43.6638 18.944C43.8958 18.456 44.2158 18.044 44.6238 17.708C45.0318 17.364 45.5158 17.1 46.0758 16.916C46.6438 16.732 47.2638 16.64 47.9358 16.64C48.4638 16.64 48.9558 16.7 49.4118 16.82C49.8678 16.932 50.2838 17.1 50.6598 17.324H53.9598ZM58.4246 16.844V29H56.2886V16.844H58.4246ZM58.8806 13.028C58.8806 13.236 58.8366 13.432 58.7486 13.616C58.6686 13.792 58.5566 13.952 58.4126 14.096C58.2766 14.232 58.1126 14.34 57.9206 14.42C57.7366 14.5 57.5406 14.54 57.3326 14.54C57.1246 14.54 56.9286 14.5 56.7446 14.42C56.5686 14.34 56.4126 14.232 56.2766 14.096C56.1406 13.952 56.0326 13.792 55.9526 13.616C55.8726 13.432 55.8326 13.236 55.8326 13.028C55.8326 12.82 55.8726 12.624 55.9526 12.44C56.0326 12.248 56.1406 12.084 56.2766 11.948C56.4126 11.804 56.5686 11.692 56.7446 11.612C56.9286 11.532 57.1246 11.492 57.3326 11.492C57.5406 11.492 57.7366 11.532 57.9206 11.612C58.1126 11.692 58.2766 11.804 58.4126 11.948C58.5566 12.084 58.6686 12.248 58.7486 12.44C58.8366 12.624 58.8806 12.82 58.8806 13.028ZM63.9502 18.608C64.2142 18.312 64.4942 18.044 64.7902 17.804C65.0862 17.564 65.3982 17.36 65.7262 17.192C66.0622 17.016 66.4142 16.884 66.7822 16.796C67.1582 16.7 67.5622 16.652 67.9942 16.652C68.6582 16.652 69.2422 16.764 69.7462 16.988C70.2582 17.204 70.6822 17.516 71.0182 17.924C71.3622 18.324 71.6222 18.808 71.7982 19.376C71.9742 19.944 72.0622 20.572 72.0622 21.26V29H69.9142V21.26C69.9142 20.34 69.7022 19.628 69.2782 19.124C68.8622 18.612 68.2262 18.356 67.3702 18.356C66.7382 18.356 66.1462 18.508 65.5942 18.812C65.0502 19.116 64.5462 19.528 64.0822 20.048V29H61.9342V16.844H63.2182C63.5222 16.844 63.7102 16.992 63.7822 17.288L63.9502 18.608Z" fill="#2E3440"/>
</svg>
