<svg width="193" height="70" viewBox="0 0 193 70" fill="none" xmlns="http://www.w3.org/2000/svg">
<circle cx="35" cy="35" r="35" fill="#2E3440"/>
<path d="M99.809 26.1015C99.9337 26.1015 100.044 26.1497 100.141 26.246L101.042 27.2235C100.543 27.8412 99.928 28.3143 99.197 28.643C98.4717 28.9717 97.599 29.136 96.579 29.136C95.6667 29.136 94.845 28.9802 94.114 28.6685C93.3887 28.3568 92.7682 27.9233 92.2525 27.368C91.7368 26.8127 91.3402 26.1497 91.0625 25.379C90.7905 24.6083 90.6545 23.7668 90.6545 22.8545C90.6545 21.9308 90.8018 21.0865 91.0965 20.3215C91.3912 19.5508 91.8048 18.8878 92.3375 18.3325C92.8758 17.7772 93.5162 17.3465 94.2585 17.0405C95.0008 16.7288 95.8225 16.573 96.7235 16.573C97.6188 16.573 98.4122 16.7203 99.1035 17.015C99.8005 17.3097 100.393 17.695 100.88 18.171L100.115 19.2335C100.07 19.3015 100.01 19.361 99.9365 19.412C99.8685 19.463 99.7722 19.4885 99.6475 19.4885C99.5625 19.4885 99.4747 19.4658 99.384 19.4205C99.2933 19.3695 99.1942 19.31 99.0865 19.242C98.9788 19.1683 98.8542 19.089 98.7125 19.004C98.5708 18.919 98.4065 18.8425 98.2195 18.7745C98.0325 18.7008 97.8143 18.6413 97.565 18.596C97.3213 18.545 97.038 18.5195 96.715 18.5195C96.1653 18.5195 95.661 18.6187 95.202 18.817C94.7487 19.0097 94.3577 19.293 94.029 19.667C93.7003 20.0353 93.4453 20.4887 93.264 21.027C93.0827 21.5597 92.992 22.1688 92.992 22.8545C92.992 23.5458 93.0883 24.1607 93.281 24.699C93.4793 25.2373 93.7457 25.6907 94.08 26.059C94.4143 26.4273 94.8082 26.7107 95.2615 26.909C95.7148 27.1017 96.2022 27.198 96.7235 27.198C97.0352 27.198 97.3157 27.181 97.565 27.147C97.82 27.113 98.0523 27.0592 98.262 26.9855C98.4773 26.9118 98.6785 26.8183 98.8655 26.705C99.0582 26.586 99.248 26.4415 99.435 26.2715C99.4917 26.2205 99.5512 26.1808 99.6135 26.1525C99.6758 26.1185 99.741 26.1015 99.809 26.1015ZM104.224 21.792C104.496 21.2707 104.819 20.8627 105.193 20.568C105.567 20.2677 106.009 20.1175 106.519 20.1175C106.921 20.1175 107.244 20.2053 107.488 20.381L107.352 21.9535C107.323 22.0555 107.281 22.1292 107.224 22.1745C107.173 22.2142 107.102 22.234 107.012 22.234C106.927 22.234 106.799 22.2198 106.629 22.1915C106.465 22.1632 106.303 22.149 106.145 22.149C105.912 22.149 105.705 22.183 105.524 22.251C105.343 22.319 105.178 22.4182 105.031 22.5485C104.889 22.6732 104.762 22.8262 104.649 23.0075C104.541 23.1888 104.439 23.3957 104.343 23.628V29H102.243V20.279H103.476C103.691 20.279 103.841 20.3187 103.926 20.398C104.011 20.4717 104.068 20.6077 104.096 20.806L104.224 21.792ZM113.954 23.6365C113.954 23.3645 113.915 23.1095 113.835 22.8715C113.762 22.6278 113.648 22.4153 113.495 22.234C113.342 22.0527 113.147 21.911 112.909 21.809C112.676 21.7013 112.404 21.6475 112.093 21.6475C111.486 21.6475 111.008 21.8203 110.656 22.166C110.311 22.5117 110.09 23.0018 109.993 23.6365H113.954ZM109.951 24.903C109.985 25.3507 110.064 25.7388 110.189 26.0675C110.313 26.3905 110.478 26.6597 110.682 26.875C110.886 27.0847 111.127 27.2433 111.404 27.351C111.688 27.453 111.999 27.504 112.339 27.504C112.679 27.504 112.971 27.4643 113.215 27.385C113.464 27.3057 113.679 27.2178 113.861 27.1215C114.048 27.0252 114.209 26.9373 114.345 26.858C114.487 26.7787 114.623 26.739 114.753 26.739C114.929 26.739 115.059 26.8042 115.144 26.9345L115.748 27.6995C115.515 27.9715 115.255 28.201 114.966 28.388C114.677 28.5693 114.374 28.7167 114.056 28.83C113.745 28.9377 113.424 29.0142 113.096 29.0595C112.773 29.1048 112.458 29.1275 112.152 29.1275C111.546 29.1275 110.982 29.0283 110.461 28.83C109.939 28.626 109.486 28.3285 109.101 27.9375C108.715 27.5408 108.412 27.0535 108.191 26.4755C107.97 25.8918 107.86 25.2175 107.86 24.4525C107.86 23.8575 107.956 23.2993 108.149 22.778C108.341 22.251 108.616 21.7948 108.973 21.4095C109.336 21.0185 109.775 20.7097 110.291 20.483C110.812 20.2563 111.399 20.143 112.05 20.143C112.6 20.143 113.107 20.2308 113.572 20.4065C114.036 20.5822 114.436 20.84 114.77 21.18C115.105 21.5143 115.365 21.928 115.552 22.421C115.745 22.9083 115.841 23.4665 115.841 24.0955C115.841 24.4128 115.807 24.6282 115.739 24.7415C115.671 24.8492 115.541 24.903 115.348 24.903H109.951ZM122.024 25.277C121.418 25.3053 120.908 25.3592 120.494 25.4385C120.08 25.5122 119.749 25.6085 119.499 25.7275C119.25 25.8465 119.072 25.9853 118.964 26.144C118.856 26.3027 118.802 26.4755 118.802 26.6625C118.802 27.0308 118.91 27.2943 119.125 27.453C119.346 27.6117 119.633 27.691 119.984 27.691C120.415 27.691 120.786 27.6145 121.097 27.4615C121.415 27.3028 121.724 27.0648 122.024 26.7475V25.277ZM117.213 21.4945C118.216 20.5765 119.423 20.1175 120.834 20.1175C121.344 20.1175 121.8 20.2025 122.202 20.3725C122.605 20.5368 122.945 20.7692 123.222 21.0695C123.5 21.3642 123.71 21.7183 123.851 22.132C123.999 22.5457 124.072 22.999 124.072 23.492V29H123.12C122.922 29 122.769 28.9717 122.661 28.915C122.554 28.8527 122.469 28.7308 122.406 28.5495L122.219 27.9205C121.998 28.1188 121.783 28.2945 121.573 28.4475C121.364 28.5948 121.146 28.7195 120.919 28.8215C120.692 28.9235 120.449 29 120.188 29.051C119.933 29.1077 119.65 29.136 119.338 29.136C118.97 29.136 118.63 29.0878 118.318 28.9915C118.006 28.8895 117.737 28.7393 117.51 28.541C117.284 28.3427 117.108 28.0962 116.983 27.8015C116.859 27.5068 116.796 27.164 116.796 26.773C116.796 26.552 116.833 26.3338 116.907 26.1185C116.981 25.8975 117.1 25.6878 117.264 25.4895C117.434 25.2912 117.652 25.1042 117.918 24.9285C118.185 24.7528 118.511 24.5998 118.896 24.4695C119.287 24.3392 119.74 24.2343 120.256 24.155C120.772 24.07 121.361 24.019 122.024 24.002V23.492C122.024 22.9083 121.899 22.4777 121.65 22.2C121.401 21.9167 121.041 21.775 120.57 21.775C120.23 21.775 119.947 21.8147 119.72 21.894C119.499 21.9733 119.304 22.064 119.134 22.166C118.964 22.2623 118.808 22.3502 118.666 22.4295C118.53 22.5088 118.377 22.5485 118.207 22.5485C118.06 22.5485 117.935 22.5117 117.833 22.438C117.731 22.3587 117.649 22.268 117.587 22.166L117.213 21.4945ZM128.84 29.136C128.081 29.136 127.497 28.9235 127.089 28.4985C126.687 28.0678 126.486 27.4757 126.486 26.722V21.8515H125.593C125.48 21.8515 125.384 21.8147 125.304 21.741C125.225 21.6673 125.185 21.5568 125.185 21.4095V20.5765L126.588 20.347L127.03 17.967C127.058 17.8537 127.112 17.7658 127.191 17.7035C127.271 17.6412 127.373 17.61 127.497 17.61H128.585V20.3555H130.914V21.8515H128.585V26.5775C128.585 26.8495 128.651 27.062 128.781 27.215C128.917 27.368 129.101 27.4445 129.333 27.4445C129.464 27.4445 129.571 27.4303 129.656 27.402C129.747 27.368 129.824 27.334 129.886 27.3C129.954 27.266 130.013 27.2348 130.064 27.2065C130.115 27.1725 130.166 27.1555 130.217 27.1555C130.28 27.1555 130.331 27.1725 130.37 27.2065C130.41 27.2348 130.453 27.2802 130.498 27.3425L131.127 28.3625C130.821 28.6175 130.47 28.8102 130.073 28.9405C129.676 29.0708 129.265 29.136 128.84 29.136ZM137.811 23.6365C137.811 23.3645 137.771 23.1095 137.692 22.8715C137.618 22.6278 137.505 22.4153 137.352 22.234C137.199 22.0527 137.003 21.911 136.765 21.809C136.533 21.7013 136.261 21.6475 135.949 21.6475C135.343 21.6475 134.864 21.8203 134.513 22.166C134.167 22.5117 133.946 23.0018 133.85 23.6365H137.811ZM133.807 24.903C133.841 25.3507 133.921 25.7388 134.045 26.0675C134.17 26.3905 134.334 26.6597 134.538 26.875C134.742 27.0847 134.983 27.2433 135.261 27.351C135.544 27.453 135.856 27.504 136.196 27.504C136.536 27.504 136.828 27.4643 137.071 27.385C137.321 27.3057 137.536 27.2178 137.717 27.1215C137.904 27.0252 138.066 26.9373 138.202 26.858C138.343 26.7787 138.479 26.739 138.61 26.739C138.785 26.739 138.916 26.8042 139.001 26.9345L139.604 27.6995C139.372 27.9715 139.111 28.201 138.822 28.388C138.533 28.5693 138.23 28.7167 137.913 28.83C137.601 28.9377 137.281 29.0142 136.952 29.0595C136.629 29.1048 136.315 29.1275 136.009 29.1275C135.402 29.1275 134.839 29.0283 134.317 28.83C133.796 28.626 133.343 28.3285 132.957 27.9375C132.572 27.5408 132.269 27.0535 132.048 26.4755C131.827 25.8918 131.716 25.2175 131.716 24.4525C131.716 23.8575 131.813 23.2993 132.005 22.778C132.198 22.251 132.473 21.7948 132.83 21.4095C133.192 21.0185 133.632 20.7097 134.147 20.483C134.669 20.2563 135.255 20.143 135.907 20.143C136.456 20.143 136.964 20.2308 137.428 20.4065C137.893 20.5822 138.292 20.84 138.627 21.18C138.961 21.5143 139.222 21.928 139.409 22.421C139.601 22.9083 139.698 23.4665 139.698 24.0955C139.698 24.4128 139.664 24.6282 139.596 24.7415C139.528 24.8492 139.397 24.903 139.205 24.903H133.807Z" fill="black"/>
<path d="M95.8185 59H92.1735V39.479H95.8185V59ZM113.266 59H109.931V47.6465H103.505V55.1525C103.505 55.5845 103.609 55.922 103.816 56.165C104.032 56.408 104.324 56.5295 104.693 56.5295C104.9 56.5295 105.071 56.507 105.206 56.462C105.35 56.408 105.472 56.354 105.571 56.3C105.679 56.246 105.773 56.1965 105.854 56.1515C105.935 56.0975 106.016 56.0705 106.097 56.0705C106.196 56.0705 106.277 56.0975 106.34 56.1515C106.403 56.1965 106.471 56.2685 106.543 56.3675L107.542 57.9875C107.056 58.3925 106.498 58.6985 105.868 58.9055C105.238 59.1125 104.585 59.216 103.91 59.216C102.704 59.216 101.777 58.8785 101.129 58.2035C100.49 57.5195 100.171 56.579 100.171 55.382V47.6465H98.7535C98.5735 47.6465 98.4205 47.588 98.2945 47.471C98.1685 47.354 98.1055 47.1785 98.1055 46.9445V45.6215L100.333 45.2435L101.035 41.477C101.08 41.297 101.165 41.1575 101.291 41.0585C101.417 40.9595 101.579 40.91 101.777 40.91H103.505V45.2705H113.266V59ZM113.846 41.0585C113.846 41.3465 113.788 41.621 113.671 41.882C113.554 42.134 113.396 42.3545 113.198 42.5435C113.009 42.7325 112.78 42.8855 112.51 43.0025C112.249 43.1105 111.97 43.1645 111.673 43.1645C111.385 43.1645 111.115 43.1105 110.863 43.0025C110.611 42.8855 110.39 42.7325 110.201 42.5435C110.012 42.3545 109.859 42.134 109.742 41.882C109.634 41.621 109.58 41.3465 109.58 41.0585C109.58 40.7615 109.634 40.487 109.742 40.235C109.859 39.974 110.012 39.749 110.201 39.56C110.39 39.362 110.611 39.209 110.863 39.101C111.115 38.984 111.385 38.9255 111.673 38.9255C111.97 38.9255 112.249 38.984 112.51 39.101C112.78 39.209 113.009 39.362 113.198 39.56C113.396 39.749 113.554 39.974 113.671 40.235C113.788 40.487 113.846 40.7615 113.846 41.0585ZM119.788 46.85C120.067 46.571 120.359 46.3145 120.665 46.0805C120.98 45.8375 121.309 45.635 121.651 45.473C122.002 45.302 122.375 45.1715 122.771 45.0815C123.167 44.9825 123.599 44.933 124.067 44.933C124.823 44.933 125.494 45.0635 126.079 45.3245C126.664 45.5765 127.15 45.9365 127.537 46.4045C127.933 46.8635 128.23 47.417 128.428 48.065C128.635 48.704 128.738 49.4105 128.738 50.1845V59H125.404V50.1845C125.404 49.3385 125.21 48.686 124.823 48.227C124.436 47.759 123.847 47.525 123.055 47.525C122.479 47.525 121.939 47.6555 121.435 47.9165C120.931 48.1775 120.454 48.533 120.004 48.983V59H116.669V45.149H118.708C119.14 45.149 119.423 45.3515 119.558 45.7565L119.788 46.85ZM140.833 50.4815C140.833 50.0495 140.77 49.6445 140.644 49.2665C140.527 48.8795 140.347 48.542 140.104 48.254C139.861 47.966 139.551 47.741 139.173 47.579C138.804 47.408 138.372 47.3225 137.877 47.3225C136.914 47.3225 136.153 47.597 135.595 48.146C135.046 48.695 134.695 49.4735 134.542 50.4815H140.833ZM134.475 52.493C134.529 53.204 134.655 53.8205 134.853 54.3425C135.051 54.8555 135.312 55.283 135.636 55.625C135.96 55.958 136.342 56.21 136.783 56.381C137.233 56.543 137.728 56.624 138.268 56.624C138.808 56.624 139.272 56.561 139.659 56.435C140.055 56.309 140.397 56.1695 140.685 56.0165C140.982 55.8635 141.238 55.724 141.454 55.598C141.679 55.472 141.895 55.409 142.102 55.409C142.381 55.409 142.588 55.5125 142.723 55.7195L143.682 56.9345C143.313 57.3665 142.899 57.731 142.44 58.028C141.981 58.316 141.499 58.55 140.995 58.73C140.5 58.901 139.992 59.0225 139.47 59.0945C138.957 59.1665 138.457 59.2025 137.971 59.2025C137.008 59.2025 136.113 59.045 135.285 58.73C134.457 58.406 133.737 57.9335 133.125 57.3125C132.513 56.6825 132.031 55.9085 131.68 54.9905C131.329 54.0635 131.154 52.9925 131.154 51.7775C131.154 50.8325 131.307 49.946 131.613 49.118C131.919 48.281 132.355 47.5565 132.922 46.9445C133.498 46.3235 134.196 45.833 135.015 45.473C135.843 45.113 136.774 44.933 137.809 44.933C138.682 44.933 139.488 45.0725 140.226 45.3515C140.964 45.6305 141.598 46.04 142.129 46.58C142.66 47.111 143.074 47.768 143.371 48.551C143.677 49.325 143.83 50.2115 143.83 51.2105C143.83 51.7145 143.776 52.0565 143.668 52.2365C143.56 52.4075 143.353 52.493 143.047 52.493H134.475ZM149.478 47.552C149.91 46.724 150.423 46.076 151.017 45.608C151.611 45.131 152.313 44.8925 153.123 44.8925C153.762 44.8925 154.275 45.032 154.662 45.311L154.446 47.8085C154.401 47.9705 154.334 48.0875 154.244 48.1595C154.163 48.2225 154.05 48.254 153.906 48.254C153.771 48.254 153.569 48.2315 153.299 48.1865C153.038 48.1415 152.781 48.119 152.529 48.119C152.16 48.119 151.832 48.173 151.544 48.281C151.256 48.389 150.995 48.5465 150.761 48.7535C150.536 48.9515 150.333 49.1945 150.153 49.4825C149.982 49.7705 149.82 50.099 149.667 50.468V59H146.333V45.149H148.29C148.632 45.149 148.871 45.212 149.006 45.338C149.141 45.455 149.231 45.671 149.276 45.986L149.478 47.552ZM163.537 53.087C162.574 53.132 161.764 53.2175 161.107 53.3435C160.45 53.4605 159.924 53.6135 159.528 53.8025C159.132 53.9915 158.848 54.212 158.677 54.464C158.506 54.716 158.421 54.9905 158.421 55.2875C158.421 55.8725 158.592 56.291 158.934 56.543C159.285 56.795 159.739 56.921 160.297 56.921C160.981 56.921 161.571 56.7995 162.066 56.5565C162.57 56.3045 163.06 55.9265 163.537 55.4225V53.087ZM155.896 47.0795C157.489 45.6215 159.406 44.8925 161.647 44.8925C162.457 44.8925 163.182 45.0275 163.821 45.2975C164.46 45.5585 165 45.9275 165.441 46.4045C165.882 46.8725 166.215 47.435 166.44 48.092C166.674 48.749 166.791 49.469 166.791 50.252V59H165.279C164.964 59 164.721 58.955 164.55 58.865C164.379 58.766 164.244 58.5725 164.145 58.2845L163.848 57.2855C163.497 57.6005 163.155 57.8795 162.822 58.1225C162.489 58.3565 162.142 58.5545 161.782 58.7165C161.422 58.8785 161.035 59 160.621 59.081C160.216 59.171 159.766 59.216 159.271 59.216C158.686 59.216 158.146 59.1395 157.651 58.9865C157.156 58.8245 156.729 58.586 156.369 58.271C156.009 57.956 155.73 57.5645 155.532 57.0965C155.334 56.6285 155.235 56.084 155.235 55.463C155.235 55.112 155.293 54.7655 155.41 54.4235C155.527 54.0725 155.716 53.7395 155.977 53.4245C156.247 53.1095 156.594 52.8125 157.017 52.5335C157.44 52.2545 157.957 52.0115 158.569 51.8045C159.19 51.5975 159.91 51.431 160.729 51.305C161.548 51.17 162.484 51.089 163.537 51.062V50.252C163.537 49.325 163.339 48.641 162.943 48.2C162.547 47.75 161.976 47.525 161.229 47.525C160.689 47.525 160.239 47.588 159.879 47.714C159.528 47.84 159.217 47.984 158.947 48.146C158.677 48.299 158.43 48.4385 158.205 48.5645C157.989 48.6905 157.746 48.7535 157.476 48.7535C157.242 48.7535 157.044 48.695 156.882 48.578C156.72 48.452 156.589 48.308 156.49 48.146L155.896 47.0795ZM173.077 47.552C173.509 46.724 174.022 46.076 174.616 45.608C175.21 45.131 175.912 44.8925 176.722 44.8925C177.361 44.8925 177.874 45.032 178.261 45.311L178.045 47.8085C178 47.9705 177.932 48.0875 177.842 48.1595C177.761 48.2225 177.649 48.254 177.505 48.254C177.37 48.254 177.167 48.2315 176.897 48.1865C176.636 48.1415 176.38 48.119 176.128 48.119C175.759 48.119 175.43 48.173 175.142 48.281C174.854 48.389 174.593 48.5465 174.359 48.7535C174.134 48.9515 173.932 49.1945 173.752 49.4825C173.581 49.7705 173.419 50.099 173.266 50.468V59H169.931V45.149H171.889C172.231 45.149 172.469 45.212 172.604 45.338C172.739 45.455 172.829 45.671 172.874 45.986L173.077 47.552ZM192.585 45.149L185.039 62.807C184.94 63.041 184.809 63.2165 184.647 63.3335C184.494 63.4595 184.256 63.5225 183.932 63.5225H181.448L184.04 57.9605L178.437 45.149H181.367C181.628 45.149 181.83 45.212 181.974 45.338C182.127 45.464 182.24 45.608 182.312 45.77L185.255 52.952C185.354 53.195 185.435 53.438 185.498 53.681C185.57 53.924 185.637 54.1715 185.7 54.4235C185.781 54.1715 185.862 53.924 185.943 53.681C186.024 53.429 186.114 53.1815 186.213 52.9385L188.994 45.77C189.066 45.59 189.183 45.4415 189.345 45.3245C189.516 45.2075 189.705 45.149 189.912 45.149H192.585Z" fill="black"/>
<path fill-rule="evenodd" clip-rule="evenodd" d="M40.3334 18.3333C41.4027 18.3333 42.3203 18.3333 43.1131 18.36C42.7313 18.7989 42.5001 19.3724 42.5001 19.9999V22.4999H40.0001C38.6194 22.4999 37.5001 23.6192 37.5001 24.9999C37.5001 26.3806 38.6194 27.4999 40.0001 27.4999H42.5001V29.9999C42.5001 31.3806 43.6194 32.4999 45.0001 32.4999C46.3808 32.4999 47.5001 31.3806 47.5001 29.9999V27.4999H48.3334V43.6666C48.3334 47.4378 48.3334 49.3234 47.1618 50.495C45.9903 51.6666 44.1046 51.6666 40.3334 51.6666H29.6667C25.8955 51.6666 24.0099 51.6666 22.8383 50.495C21.6667 49.3234 21.6667 47.4378 21.6667 43.6666V26.3333C21.6667 22.562 21.6667 20.6764 22.8383 19.5048C24.0099 18.3333 25.8955 18.3333 29.6667 18.3333H40.3334ZM47.4983 19.9058C47.9417 20.5401 48.1497 21.3631 48.2472 22.4999H47.5001V19.9999C47.5001 19.9684 47.4995 19.937 47.4983 19.9058ZM28.3334 33.9999C27.7811 33.9999 27.3334 34.4476 27.3334 34.9999C27.3334 35.5522 27.7811 35.9999 28.3334 35.9999H35.0001C35.5524 35.9999 36.0001 35.5522 36.0001 34.9999C36.0001 34.4476 35.5524 33.9999 35.0001 33.9999H28.3334ZM28.3334 38.9999C27.7811 38.9999 27.3334 39.4476 27.3334 39.9999C27.3334 40.5522 27.7811 40.9999 28.3334 40.9999H38.3334C38.8857 40.9999 39.3334 40.5522 39.3334 39.9999C39.3334 39.4476 38.8857 38.9999 38.3334 38.9999H28.3334ZM28.3334 43.9999C27.7811 43.9999 27.3334 44.4476 27.3334 44.9999C27.3334 45.5522 27.7811 45.9999 28.3334 45.9999H35.0001C35.5524 45.9999 36.0001 45.5522 36.0001 44.9999C36.0001 44.4476 35.5524 43.9999 35.0001 43.9999H28.3334Z" fill="white"/>
<path d="M45 20L45 30" stroke="white" stroke-width="2" stroke-linecap="round"/>
<path d="M50 25L40 25" stroke="white" stroke-width="2" stroke-linecap="round"/>
</svg>
